<svg version="1.0" xmlns="http://www.w3.org/2000/svg" width="800" height="600" viewBox="0 0 600 450"><path d="M39.7 4.2c-.5 1.7 2.5 7.8 4.9 9.9 1.1.9 3.4 2.1 5.2 2.9 1.7.7 3.2 1.6 3.2 2.1 0 1.3 5.6 3.9 8.3 3.9 3 0 7.7-4.5 7.7-7.4-.1-2.1-.1-2.1-1.6-.1-3.2 4.3-4.4 5.5-6 5.5-2.2 0-7.4-5.5-7.4-7.8 0-1.1-.9-3.1-2.1-4.6l-2-2.6 2.3-.1c1.9 0 1.7-.3-1.2-1.4-4.5-1.7-10.7-1.9-11.3-.3zm553.9 92.4c-4.2 2.7-5.4 3.9-4.4 4.5.7.5.8.9.3.9-.7 0-.9 1.5-.7 3.7l.5 3.8 1.8-4 1.8-4v6.8c.1 4.3.5 6.6 1.1 6.2.6-.3 1-1.7 1-2.9 0-1.3.6-3.9 1.4-5.7 1.4-3.1 1.5-1.9 1.4 14.6 0 9.9.4 21.4.9 25.5.9 6.2 1.1 2.3 1.2-22.8 0-16.6 0-30.2-.2-30.2-.1 0-2.9 1.6-6.1 3.6zm-566.1 3.6c-1.6.6-3.9 1.7-5 2.4-1.1.8-2.9 1.4-4 1.4-4.8 0-14.1 10.8-16.3 19l-.9 3.5H19c14.4 0 17.3-.2 15.1-1.2-1.4-.6-2-1.2-1.2-1.2 1.1-.1 1-.5-.5-1.5-1.8-1.4-1.8-1.5-.1-2.1 1.2-.5 1.6-1.4 1.2-2.6-.4-1 .3-3.9 1.4-6.5 1.2-2.6 2.1-5.2 2.1-5.9 0-1.4 4.4-2.5 9.7-2.5 1.9 0 3.2-.4 2.9-.9-.3-.4-1.8-.6-3.2-.3-1.9.3-2.5.1-2-.7.5-.8-1-1.1-5.3-1.1-3.2 0-6.5-.2-7.3-.4-.7-.3-2.6 0-4.3.6zm547.5 7.4c-7.7 4.4-8.1 4.9-6.4 9.7 1 2.8 1.7 10.4 2.1 22.2.4 9.9.8 17.5.9 17 .2-.6.8-9.6 1.4-20 .9-16 2.5-29.7 2.9-26 0 .5.8 8.6 1.7 18 .9 9.3 2 17.4 2.5 17.9.5.6 1 3 1.1 5.5.1 2.6.4.1.8-5.4.3-5.5.2-11-.2-12.1-.3-1.2-.8-8.3-1-15.8-.2-7.5-.5-13.6-.8-13.6-.3 0-2.5 1.2-5 2.6zm12.2 15.6c-.1 2.9.2 25.3.6 49.8l.7 44.5.5-48c.3-26.4.4-48.8.2-49.8-.8-3.4-1.8-1.6-2 3.5zm-412 68.5c-1.2.2-2 .9-1.7 1.4.4.5-.7.6-2.5.3-2.6-.6-3-.4-3 1.5 0 1.2-.6 2.1-1.5 2.1s-1.5.9-1.5 2.4c0 1.7-.7 2.6-2.6 3-3.8 1-2.9 4.8 1.4 6.2 1.8.6 3.3 1.3 3.3 1.7-.3 2.8.1 3.7 1.5 3.7s1.6-.8 1-5.1c-.6-4.5-.4-5.3 1.3-6.6 1.4-.9 2.1-2.5 2.1-4.6 0-3.2 0-3.2 1.3-.8.6 1.3 1.5 2.2 1.8 2 .4-.2 1.6.4 2.7 1.4 3.2 2.9 3.7.5 1.5-7.6-.4-1.7-.9-1.8-5.1-1zm393.4 35.5c-.6 6.1-1.2 7.8-2.4 7.8-1.3 0-1.2.3.4 1.4 1.8 1.4 1.9 3.1 2 45.8.1 24.4 0 43.3-.3 42-.4-2.1-.6-2.1-3.1-.8-1.5.8-4.3 1.7-6.4 2.1-2 .3-3.9 1.2-4.2 2-.3.8-1 1.5-1.6 1.5-.7 0-.8-.6-.1-1.8.5-1 .6-2.4.1-3.2-.6-1-.9-.7-1.2 1.1-.3 2.4-.4 2.4-12 2.4h-11.6l-.5 2.8c-.2 1.6.2 3.5 1 4.2 1 1 1 1.4 0 1.8-.6.3-.2.6 1.1.6 1.2.1 2.2.5 2.2 1s1 1.2 2.3 1.4c1.2.2-1.3.5-5.5.6l-7.6.1-4.8-5.8c-6.2-7.4-6.9-8.1-5.8-6 .5.9 3.1 4.2 5.7 7.2l4.8 5.6h20.8c20.6 0 20.9 0 24.5 2.5 2 1.4 4 2.5 4.4 2.5.4 0 .6-3.3.4-7.2-.2-4-.6-32.5-1-63.3-.5-39.2-1-53.7-1.6-48.3zm-343.1 6.3c-5.6 2.9-5.5 2.3-5.5 37.6 0 22.9-.3 33-1.1 33.5-.8.4-.8.9-.1 1.3.7.4.8 1.2.2 2.1-.8 1.3-1 1.3-1 .1s-.3-1.1-1.2.2c-1.1 1.4-3.4 1.7-13.2 1.9l-11.9.3-1.9 6c-4.4 14-7 24.9-6.4 27.6.3 1.6.1 3.1-.4 3.4-.6.3-1 1.1-1 1.8 0 .6.7.2 1.5-1s4.5-3.8 8.2-5.7c6.3-3.3 7.4-3.6 15.5-3.6h8.9l-1.6 3c-2 3.9-10.6 10.7-17.1 13.6-9.7 4.3-19.5 5.8-38.9 6l-18 .2-11.5 5c-12.5 5.4-28.1 10.9-40 14-7.6 2-25.8 6.1-29.5 6.7-1.1.1-5.6.8-10 1.6-11.3 1.9-38.6 1.7-44.7-.3-2.7-.9-4.5-1.2-4.2-.7.3.5 1.2.9 2 .9 2.1 0 1.7 1.8-.6 2.5-1.9.6-2 1.5-2 29.6V450h29.5c27.6 0 29.5-.1 29.5-1.8s1.2-2.5 22-14c22.4-12.3 22.9-12.5 31.2-12.8 4.3-.1 7.6.1 7.3.5-.2.4.2.8 1 .8s1.1-.5.8-1c-.4-.6.1-.8 1.1-.4s2 .7 2.2.7c.2 0 .4.5.4 1.1 0 .5-.4.7-1 .4-.5-.3-1-.3-1 .2 0 .4-2.9.8-6.4.8-3.5 0-6.2-.3-6-.7.3-.4-.3-.5-1.2-.1-1.2.4-1.5.3-1-.5.4-.7.3-1.2-.3-1.2-.5 0-1.2.4-1.5.9-.3.5-1.8 1.2-3.2 1.5-1.5.4-3.3 1.4-4.1 2.1-1.7 1.8-1 1.9 1.8.4 1.6-.8 2.5-.7 3.8.5 1.1 1 3.6 1.6 6.7 1.6 4 .1 4.6.3 3 1.2-1 .6-6.9 1.3-13 1.6-12.2.6-10.7 1.9 2.5 2.1 10.7.1 20.3 1.3 18.8 2.2-.7.4-2.6.5-4.3.2-2.3-.3-3.7.1-5.3 1.7-1.3 1.1-2.3 1.6-2.3 1.1 0-1.1-5.4-.6-11 .9-1.9.6-5.4 1-7.7 1-2.4 0-4.3.4-4.3 1 0 .5-2.6 1-5.7 1-4.1 0-5.4.3-4.3 1 .8.5 2.5 1 3.8 1 4.1 0 .2 2.6-5.3 3.6-3.4.6 8.8 1 37.9 1.2l43 .2 3-3.7c8.3-10.2 47.9-51.9 69.4-73.1 8-7.8 13.8-14 12.9-13.6-.9.3-1.7 1-1.7 1.5s-.5.9-1.1.9c-.5 0-.7-.5-.4-1 .3-.6.1-1-.5-1s-1 .7-.8 1.6c.2.9-.8 2.3-2.2 3.3-1.3.9-2.1 1.1-1.7.4.9-1.4-.8-2.7-2.3-1.8-.6.4-.7 1.3-.1 2.4.6 1 .6 2.3 0 3.2-.6 1-.9 1.1-.9.1 0-.7-.4-1.1-.9-.7-.5.3-1.2-.3-1.4-1.2-.4-1.5-.6-1.5-1.2.4-.4 1.3-1.2 2.3-1.7 2.3-.6 0-.4.8.3 1.7 1.2 1.6 1.2 1.7-.2.6-1-.8-1.4-2.3-1.1-4.3.2-1.7-.1-3.7-.8-4.5-1.3-1.6-.8-2 4-2.8 1.4-.2-.4-.5-4-.6-3.6-.2-10.3-.4-15-.5-4.7-.2-9.1.1-9.7.7-.9.6-1.3.6-1.3-.2 0-.6 3.9-4.3 8.8-8.3 10.3-8.6 16.4-13.1 14.3-10.4-2.5 3 .3 3.6 16.9 3.6h15.6l4.2-4c2.5-2.4 5.1-4 6.6-4 1.6 0 3.9-1.6 6.8-4.6 2.3-2.5 6.4-5.7 9-7 3.5-1.8 4.9-3.2 5.8-5.9.6-1.9 1.9-3.9 2.8-4.4 3.1-1.6 19.5-3.1 35-3.1 12.8 0 15.2-.2 15.3-1.5.1-.8.3-2 .4-2.5.1-.6.3-1.4.4-1.8 0-.5 2-1.8 4.4-3 5.3-2.7 24.3-4 60.9-4.4 21.5-.3 24.2-.5 21-1.6-2-.7-4.3-1-5.2-.6-3.2 1.2-23.9.5-26.8-1-2.3-1.2-3.1-1.2-5.4 0-2 1-3.8 1.1-7.5.5-2.6-.5-4.9-.6-5.1-.1-.4 1.2-4.6-.1-5.5-1.7-.7-1.2-3.1-1.4-11-1.2-11.4.3-21.4-.5-26.7-2.1-1.9-.5-5.6-1-8.2-1-4.2 0-4.8.3-4.8 2.1s-.2 2-1.6.8c-.8-.7-1.3-2.1-1.1-3.1.4-1.4-.1-1.8-1.9-1.8-2.7 0-3.4-2.7-.9-3.6.8-.4 1.5-1 1.5-1.5 0-1.2-5.7-1.1-6.5.1-.3.5.1 1 .9 1 .9 0 1.6.7 1.6 1.5 0 1.1-.7 1.4-2.3 1-1.4-.4-3 .1-4.4 1.4-1.6 1.5-2.9 1.9-5.7 1.4-2-.3-3.8-.9-4.1-1.3-.2-.4.7-.5 2.2-.2 1.8.3 2.4.1 1.9-.7-.4-.6-1.4-1.1-2.2-1.1-.8 0-1.4-.9-1.4-2s.6-2 1.4-2c2.8 0 2.8-2.2.1-4.8-2.6-2.4-2.7-2.4-2-.3.6 2 .5 2.1-1.3 1-1.6-1-2.4-.9-4.3.5l-2.4 1.7 2.7-.6c2.3-.6 2.6-.4 2.1 1.4-.3 1.2-1.3 2.1-2.5 2.1-1.5 0-1.9.6-1.8 2.7.4 5.7.1 6.5-2 5.8-1.3-.4-2.8.2-4.4 1.9-1.4 1.3-3.3 2.6-4.3 2.8-1.5.3-1.8 1.3-1.6 6.6.2 3.4-.1 6.2-.6 6.2s-1.7.7-2.6 1.6c-1.1 1.2-1.9 1.3-2.8.5-1-.7-3.2-.7-7.6 0-5.1.8-6.6.7-8.4-.6-1.2-.8-3.1-1.5-4.2-1.5-2.5 0-11.8-3-12.5-4-.3-.4-1.6-1.1-2.9-1.5-1.7-.5-2.1-.4-1.6.5.4.7-.4.4-1.8-.5-2.5-1.6-2.6-2-2.1-8.6.2-3.9 0-7.8-.5-8.8-.5-.9-1.2-3.6-1.4-5.9-.6-5.1-1.5-6.5-3.4-5.8-1.3.5-1.4-1.4-1.1-13.8.2-7.9.6-14.2 1.1-13.9.4.2.7-.2.7-1.1 0-.8-.6-1.7-1.2-1.9-1-.4-.9-.8.2-1.6 1.3-1 1.3-1.2 0-2.1-1.1-.7-1.1-1-.2-1 .7 0 1.1-.4.7-1-.3-.5.6-1.7 2-2.6 2-1.3 6.1-1.7 21.8-2.1 10.5-.3 23.9-.1 29.7.4 5.8.4 15.2.6 21 .3 8.7-.4 6.3-.6-13.9-1.3-39.3-1.2-55.1-.9-58.6.8zm37.6 79.9c.2.2.2 2.8 0 5.6-.3 5.6-2 7.2-4.9 4.8-1.3-1.1-4.7-1.4-13.9-1.4l-12.3.1V320c0-1.4-.3-3.5-.6-4.8l-.6-2.2h15.9c8.8 0 16.2.2 16.4.4z"/><path d="M136.6 295.2c-1.1.6-3 2.3-4.2 3.7-1.3 1.4-2.4 2.1-2.4 1.5 0-.6.7-1.7 1.5-2.4 2.5-2.1 1.7-2.8-2.2-2-4.1.9-8.1 4.9-11.4 11.2-1.7 3.3-6.9 20.7-6.9 23.2 0 .4 2.1.5 4.8.1 2.6-.4 7.6-1.1 11.1-1.4 5.9-.6 6.4-.8 6.7-3.1.8-5.9 5.6-24 7.1-27 .7-1.4 1.3-3 1.3-3.5 0-1.4-3.1-1.6-5.4-.3z"/><path d="M117.2 300.1c-1.8 1.7-3.9 4.1-4.7 5.3-1.8 2.7-7.1 17.7-8 22.8-.7 3.6-.6 3.8 1.9 3.8 2 0 2.7-.6 3.2-2.8 2.6-12.1 5.8-21.3 9.4-26.5 4.2-6.2 3.4-7.5-1.8-2.6z"/><path d="M104.9 300.7c-3.2 2.7-8.9 13.3-8.9 16.6 0 1-.5 1.5-1.1 1.2-1.1-.7-.7-5.6 1-11.3.5-1.7.6-3.2.1-3.2-.4 0-1.1 1.6-1.4 3.5l-.7 3.5h-7.5c-4.1 0-9.6.7-12.2 1.5-4.5 1.4-31.8 3.5-45.9 3.5-9.4 0-9.8.5-7.9 7 2 6.6 2 7 .1 7-.8 0-5.8 1.2-11 2.6L0 335.3v14.3c0 7.9.3 14.4.6 14.4 1.5 0 15.5-4.4 22.8-7.2 8.7-3.4 9.6-3.1 9.6 2.9 0 2.1.5 3.3 1.4 3.3.7 0 1.9.7 2.6 1.6 1.1 1.2 1.1 1.5 0 1.2-.7-.2-1.4.2-1.6.7-.5 1.4 10.3 1.2 19.1-.3 3.9-.7 8.4-1.4 10-1.6 2.2-.2 1.8-.4-1.5-.6-2.5-.1 5-1 16.6-1.9l21.1-1.7 7.9-4.8c19.3-11.9 22.4-14.3 22.4-17.2 0-.3-1.5-.3-3.2 0-1.8.3-8.7.8-15.4 1.1l-12.1.6-2.2-8.3-2.2-8.3 2.5-7.3c3-8.7 5.7-13.4 9.4-16.1 1.5-1.1 2.2-2.1 1.5-2.1-.6 0-2.6 1.2-4.4 2.7zM544 365.9c.5.9 3.2 3.9 6.2 6.5 2.9 2.7 15.3 14.8 27.6 27l22.2 22v-24.7c0-18.4-.3-24.6-1.1-24.1-.9.5-1-.1-.5-2 .4-1.6.3-2.5-.2-2.2-.6.3-1.6-.2-2.3-1.1-1.2-1.4-1.2-1.6.1-.8.8.4 1.2.4.7 0-.4-.5-10.3-.8-22-.7-11.6.2-23.5-.1-26.4-.6-4.7-.8-5.1-.7-4.3.7z"/></svg>