<svg version="1.0" xmlns="http://www.w3.org/2000/svg" width="1066.667" height="922.667" viewBox="0 0 800 692"><path d="M573 61.2c-8 2.1-18.8 4.8-24 5.8-19.5 4-37 8.5-37 9.6 0 .6 1.4 1.8 3.1 2.6l3 1.5-3.3.8c-1.8.4-2.8.9-2.2 1.1.9.4 50-11.4 73.7-17.7 3.4-.9 3.7-1.3 3.7-4.4 0-2.2-.5-3.5-1.2-3.4-.7.1-7.8 1.9-15.8 4.1zm-4.5 12.1c-11 2.8-20.1 5.4-20.3 5.8-.2.4-.9.6-1.5.3-.7-.2-8.9 1.4-18.2 3.6-9.4 2.2-18 4.3-19.3 4.5l-2.3.6.3 19.8c.2 15.3 0 19.2-.8 17.2-1.8-4-11.4-8-19.7-8.1h-2.8l.2 14.5c.1 8-.1 14.8-.5 15.2-.4.5-.7-.1-.6-1.2.1-1.1.2-8.1.1-15.7l-.1-13.6-5.2-.6c-2.9-.4-7-.9-9.1-1.2l-3.9-.6.3 30.5.4 30.5 6.5.6c3.6.4 7.7.9 9.2 1.2l2.7.5.4-8.8.3-8.8.2 8.6.2 8.6 3.3 1.1c3.1 1.1 3.1 1.1-1.3.7-28.5-3.1-73.3-3.3-71.5-.4.3.4-.1 1-.7 1.3-1.3.5 3.3-.2 6.5-1.1.9-.2 1.7 0 1.7.5 0 .6 1 .8 2.3.6 1.2-.2.6.2-1.3.9l-3.5 1.4 5.4.6c3 .4 5.9 1.1 6.5 1.7.7.7.7 1.1.1 1-2-.4-3.6 0-3.1.9.3.4 2.9.7 5.8.5 4.8-.2 4.9-.2 1.3.5l-4 .7 4.3.5c2.3.2 4.2.1 4.2-.3 0-.5.5-.8 1.1-.8.6 0 .9.7.6 1.5-.5 1.1-.1 1.2 1.8.5 1.4-.5 3-.8 3.7-.5.7.2 5.3.6 10.1.9 4.9.3 9.3.9 10 1.3 1.1.7 15.1.6 26.5-.1 3.9-.3 7.6-1.2 9.8-2.5 3.5-2.1 3.5-2.1 2.9-.1-.5 1.6-.2 2 1.8 2 2.3 0 2.5-.4 3.6-9 .6-5 1.6-13.1 2.2-18 .9-7.2 1.5-9 2.7-8.8 1.8.4 2.3 5.4.9 8.3-.6 1-1.1 4.9-1.3 8.5-.1 3.6-.5 7.2-.8 8-.3.8-1 3.5-1.5 5.9l-.9 4.4 5.6-.8c5.9-.7 9.2-1.2 10.5-1.4.4 0 .7-6.8.7-15.1 0-13.9.1-15 2-16 1.1-.6 2.3-2.3 2.6-3.8.7-2.9 6.8-9.2 9-9.2.7 0 1.6-.5 1.9-1 .8-1.2 5.2-1.3 5.9-.1.3.4-.6.6-1.9.3-1.4-.2-2.5 0-2.5.6 0 .5 1.5.9 3.3.8 2.3-.2 3.2-.7 3.1-1.9-.1-1.1.6-1.7 1.8-1.7 1 0 1.6.4 1.3 1-.3.5-.1 1 .4 1 .6 0 1.1-.6 1.1-1.3 0-.8 2.3-1.7 5.8-2.3 4.8-.9 5.9-.8 6.8.4.7.9 1.9 1.3 3.3.9 1.1-.3 1.9-.1 1.5.4-.3.5.2.6 1 .3.9-.3 1.3-1 1-1.5-.3-.5.4-.9 1.6-.9 1.2 0 1.8.4 1.5 1-.8 1.4 1.8 1.3 3.2-.1.8-.8 1.1-.6 1 .7-.1 1.2-1.2 2.1-2.7 2.4-2.4.5-2.5.9-2.8 7.8-.2 4.9.1 7.2.9 7.2.6 0 .9-.7.5-1.5-.7-1.9.1-1.9 1.9-.2.7.8 1.4 2.5 1.4 3.8.1 1.3.4 5.8.7 10l.5 7.6-3 .6c-2 .4-3.1 1.3-3.1 2.3 0 1.4.7 1.5 3.8 1 2-.3 4.3-.6 5-.6.9 0 1.2-4.9 1.2-20.9 0-15.8-.3-21.1-1.2-21.4-1-.4-1-.6 0-.6.8-.1 1.2-1.9 1.2-5.6 0-5.2-.1-5.5-2.2-5-3.6.8-34.9 6.5-36.1 6.6-.7 0-.3.5.8 1 1.6.7 1.3.8-1.1.4-1.7-.3-9.8.6-18 2-25.4 4.5-24.4 4.4-24.4 2.6 0-1.3 1.6-2 6-2.9 3.3-.7 6-1.4 6-1.5 0-.1-2-7.2-4.4-15.7-2.4-8.5-4.1-15.8-3.7-16.2.3-.4 1.7-.9 3.1-1 2.2-.3 2.5.3 4.7 8.6 2.4 9.2 4.1 13.1 2.7 6.1-.5-2.2-.8-5.2-.8-6.7.1-1.5-.3-2.5-.7-2.2-.5.3-.9.1-.9-.4 0-.6.6-1.2 1.3-1.5 1-.4 2.4 3.2 5.2 13.4 3.7 13.7 4.3 14.7 7.8 13.3 1.3-.5 1.2-1.5-.8-7-1.9-5.1-2-6.4-.9-6.4s1.3-.7.7-2.8c-.4-1.5-.7-3.9-.7-5.4.1-2.3-.1-2.5-1.3-1.2-1.8 1.8-2.9 1.1-3.5-2-.3-1.6 0-2.7.9-3 2-.8 2.1-.8 2.7 1.1.2 1 .2.1-.1-2-.4-2.8-.2-3.7.9-3.7 2.1 0 2.9 1.1 1.9 2.4-.7 1 5.8 26.9 7.2 28.2.6.6 8-.6 9.6-1.5.7-.5 0-4.2-2.5-12.7-1.9-6.5-3.3-13.2-3.1-14.7.2-1.8 0-2.4-.6-1.8-.7.7-1.7.7-2.9 0-1.3-.7-2.3-.7-3.2.1-1 .8-1.5.7-1.9-.5-.4-.8-.3-1.4.1-1.3 1.5.5 5-2.6 4.5-4-.5-1.1 0-1.3 2.6-.7 2.4.5 3.2.3 3.8-1.1.6-1.6.7-1.6 2 .2 1.2 1.7 1.3 1.7 1.3 0 0-1.2.5-1.6 1.4-1.3.8.3 2-.1 2.6-.9.7-.8 1.8-1.4 2.5-1.4s1.8-.7 2.5-1.5c1-1.2.9-1.5-.6-1.6-1.5 0 13.9-4.2 27.4-7.4 1.9-.5 2.2-1.2 2.2-5.5 0-2.8-.3-4.9-.7-4.9-.5.1-9.8 2.4-20.8 5.2zM88.3 71.4c3.7.7 7 1.6 7.4 2 .5.4-.6.5-2.2.1-2.1-.5-2.6-.4-1.6.3.8.6 1.1 1.7.8 2.7-.6 1.3-.3 1.5 1.3 1 1.1-.4 2-.2 2 .4 0 .6-.6 1.1-1.3 1.1-1.9 0-14 12.7-16.1 16.8-2.3 4.4-3.2 3.4-1.5-1.5.7-2.1 1.3-4.5 1.4-5.3.1-.8.5-2.6.9-4 .5-1.7.4-2-.2-1-.6.8-1.9 4.7-3 8.6-2.6 9.2-.9 9.5 5.3.8C85.5 87.9 93 81 95.2 81c.5 0-.4 1.2-2 2.7-1.5 1.6-2.1 2.2-1.2 1.5 2.5-1.8 4.8-1.5 2.4.4-1 .8-1.3 1.2-.5.8 1.1-.5 1.3-.1.9 2-.3 1.4-.1 2.9.4 3.2.5.3.6 2.2.2 4.1-.5 2.7-.4 3.4.5 2.9.9-.6 1.2.9 1.1 5.6-.1 3.4.2 10 .6 14.5.5 6.4.4 8.6-.7 10-1.2 1.4-1.2 1.6 0 .8 1.1-.6 1.3-.4.8.7-.3.9 0 2.1.6 2.7.8.8.2 1.1-2.3 1.2h-3.5l4 1.7c2.3.9 5.5 2.7 7.2 4 3.4 2.4 12.9 15.9 11.9 16.9-.3.3-1.3-.9-2.3-2.8-4.4-8.2-19-19.9-20.9-16.8-.4.8-.3.9.4.5s1.2-.3 1.2.1c0 .5 1.6 1.7 3.5 2.7 4.8 2.6 10.8 9.3 13.9 15.5 3.5 6.7 3.3 8.6-.2 3-1.6-2.5-4.8-6.1-7-8-2.3-2-4.2-4.5-4.2-5.6 0-1.1-.7-2-1.5-2-1.1 0-1.2.4-.4 1.4.8.9.8 1.3.1 1.3-.6 0-1.4-.5-1.7-1.1-.4-.6-1.3-.8-2.1-.5-.8.3-1.3.2-1.3-.2.4-2.5-.1-3.2-1.5-2-1.2 1.1-1 1.8 1.2 4.8 1.5 1.9 4.6 5.5 6.9 7.9 2.4 2.4 4.3 4.6 4.3 5-.1.3-3.7-3.2-8.2-7.9-6.5-6.8-7.6-7.7-5.8-4.5 1.3 2.2 3.7 5.6 5.4 7.5 1.7 1.9.2.8-3.3-2.5-4.6-4.3-5.8-5.1-4.2-2.8 1.2 1.8 1.9 3.8 1.5 4.5-.5.7-.2 1 .7.6.8-.3 2.6 1 4.2 2.9 1.6 1.8 2.4 3.3 1.9 3.3-.6 0-1.3-.4-1.6-.9-1-1.5-8.6-5.1-10.9-5.1-1.7 0-1.2.5 1.9 2 2.3 1.2 5.2 3.2 6.5 4.7l2.4 2.6-2.7-1.7c-1.5-1-3.3-1.4-3.9-1-.7.4-.9.3-.6-.3.4-.6-1.2-1.9-3.5-2.9-2.2-1-6.1-3.1-8.5-4.7-3.9-2.4-4.3-3-3.2-4.5 1.1-1.4 1.1-1.5-.1-.5-3.7 3.4-4 0-.5-6.9 1.4-2.8 2.4-5.3 2.1-5.5-.2-.2-1.6 2.2-3.1 5.4s-3.2 6.1-3.8 6.4c-.5.4 0 1.2 1.2 1.8 1.2.7 1.9 1.6 1.6 2.2-.4.5.2 1.3 1.2 1.7 3.2 1.3 12.3 8.6 12.3 9.9 0 .6.8 1.7 1.8 2.2.9.6 1.2 1.1.6 1.1-.7 0-2.2-.9-3.5-2.1-1.3-1.1-1.7-1.7-.9-1.3 1.1.5 1.2.4.4-.5-.6-.7-2.3-1.4-3.8-1.5-1.4-.2-4.4-1.5-6.7-3-2.2-1.5-4.2-2.6-4.4-2.4-.1.2-.8 1.3-1.4 2.6-.7 1.2-1.6 2-2.2 1.7-.5-.4-.7-1.1-.4-1.6.4-.5.1-.9-.5-.9s-.5-1.2.4-3.4c.8-1.9 1.2-3.7.8-4-.3-.3-.1-.6.5-.6 1.8 0 2.2 1.2 1.2 3.3-.8 1.4-.8 1.7 0 1.3.5-.4 2.7.4 4.8 1.7 5 3.1 8.3 4.9 8.3 4.4 0-.3-2.7-2.1-6-4.2-3.9-2.4-5.7-4.1-4.9-4.6.8-.4.2-1.2-1.7-2.3-1.6-.8-2.2-1.5-1.4-1.6.9 0 2.1-1.2 2.8-2.8.6-1.5 2.7-5.6 4.7-9.2 3.5-6.6 4.7-10.2 2-6.4-.8 1.2-3.2 5.4-5.4 9.5-2.3 4.1-4.1 6.5-4.1 5.4 0-1.1 1-3.6 2.1-5.5 3.1-5 9.9-18.3 9.6-18.7-.2-.1-2.6 3.6-5.3 8.3l-4.9 8.5-.3-3.6c-.2-2.1.5-6 1.6-8.9 1.1-2.8 2-6.2 2-7.6 0-1.4-.2-1.9-.5-1.3-.9 2.5-2 1.2-6.1-7.1-2.4-4.7-6.4-10.8-9-13.7-2.9-3.2-4.2-5.4-3.4-5.7.6-.2 1.2-.8 1.2-1.3 0-.4-1-.5-2.2 0-1.6.6-3.2.2-5.5-1.3-2.7-1.7-3.3-2.7-3.3-5.8 0-2-.5-4-1-4.3-.7-.4-.6-1.4.1-2.8 1.1-2.1 1.1-2.1-.7-.6-1.7 1.5-7.8 2.7-17.9 3.5-8.1.6-19.6 2.7-20.1 3.6-.4.6-.1 1.3.5 1.7 1 .7 10.1 15.8 10.1 16.9 0 .2.9 1.5 2 2.9s2 2.2 2 1.8c0-.4.7-.2 1.5.5 3.1 2.6 2.2.3-2.2-5.5-2.4-3.3-5.4-7.4-6.5-9l-2-3 2.9 3.1c1.5 1.7 4.3 4.8 6.1 7l3.4 3.9-2.8-4C11.6 91 5.7 83.6 4.8 83.2c-1.3-.6-.9-1.9.7-2.5.9-.4 2.8 1.4 5.6 5.3 2.3 3.3 4.4 6 4.6 6 .5 0-.3-1.4-4-6.8-1.6-2.4-2.7-4.5-2.5-4.8 1-.9 10.4-2.2 11.1-1.5 1 1 3.7 10.9 3.7 13.6 0 1.7-.2 1.7-1 .5-.7-1-1-1.1-1-.2 0 .7.7 1.5 1.5 1.8.8.4 1.2 1 .9 1.6-.8 1.3.5 6 1.5 5.4 1.1-.7 4.6 3.2 3.7 4.2-.4.4-1.4-.2-2.2-1.2-.7-1.1-1.7-1.6-2.1-1.2-.5.4.4 1.8 1.9 2.9 3.8 3.1 2.4 5.2-2.8 4.3l-3.9-.6 3.5 1.8c1.9.9 4.1 2.3 4.8 3 1.2 1 .6 1.1-3 .7l-4.3-.6 3.5 1.8c4.8 2.4 5.8 3.4 5.2 5.6-.3 1.2-1 1.6-2.1 1.1l-3.3-1.1c-1.6-.5-4.5-6-4-7.6.1-.4-.3-.7-1-.7-.6 0-.9-.3-.6-.6.3-.3-.9-2-2.7-3.7-1.8-1.8-3.3-3.7-3.4-4.2-.1-.6-.6-1-1.2-1s-2.4-1.6-4.1-3.5c-2.7-3.2-2.8-3.2-.9-.4 1.1 1.7 2.7 3.7 3.6 4.4.8.7 1.5 1.7 1.5 2.3 0 .6-1.2 0-2.7-1.4-1.4-1.3-.2.6 2.7 4.3 5.5 7 7.8 9.2 4 3.8-1.1-1.6-2.5-3.2-3-3.5-.6-.4-1-1.2-1-1.8.1-1.5 5.8 4.9 8.3 9.2 1.8 3.1 1.8 3.1-.5 4-2.2.9-2.2.9-.4 1.7 1.2.5 2.1.3 2.4-.4.2-.7 1.4-.5 3.5.7 8.2 4.6 10.7 6.4 10.7 7.3 0 .5.5.6 1 .3.6-.3 1-.1 1 .4 0 1.7-1.8 1.3-4-.9-1.1-1.1-2.7-2-3.5-2-.8 0-1.5-.4-1.5-.8 0-.8-3.3-2.8-6.5-4-1.7-.7 4 4.4 6.3 5.7 1.2.6 2.2 1.6 2.2 2.2 0 1.3-4.3-1.3-9.9-6-2.2-1.9-3.8-3.8-3.5-4.3 1-1.6-10.7-15.8-13-15.8-.6 0 1.5 2.6 4.7 5.8 6.7 6.8 7.7 9.3 1.2 3.3-6.5-6-6.8-5-.4 1.6 8.3 8.8 10.3 11.2 9.6 11.9-.3.4-3.2-1.7-6.4-4.5-3.1-2.8-6-5.1-6.4-5.1-1.7 0 13.4 13.4 15.4 13.7 1.7.3 1.9.1.9-.9-2.9-2.9-.8-2.5 3.8.8 5.7 4.1 6.1 5.6.6 2.3-2-1.1-3.6-1.6-3.6-1.1 0 .6 1.8 2.1 4 3.3 2.2 1.3 4 2.8 4 3.6 0 1.8-6.4-2.2-8.5-5.3-.9-1.4-1.9-2.3-2.2-2-.3.3 0 1.2.7 2.1.7.8.9 1.5.4 1.5-.4 0-4.4-3.7-8.7-8.3-4.4-4.5-7.1-7.1-6.1-5.7 1 1.4 3.8 4.6 6.3 7.2 2.5 2.6 4.2 5 3.9 5.3-.3.3-3.4-2.5-6.9-6.2-6.5-7-6.4-6.5.5 2.2l4 5-4.4-4c-5.2-4.7-3.5-2 2.9 4.7 5.8 6.1 5 7-1.2 1.2C8 134 5 132.8 5 135.2c0 .7-1.2 3.5-2.5 6.3-1.4 2.7-2.5 6.6-2.5 8.5v3.5l3-4.5c1.6-2.5 3.2-5 3.4-5.5.2-.6.7-.7 1.1-.2.9.8-.6 4.2-4.6 10.3l-2.8 4v45.7C0 238.3.3 249 1.2 249c.9 0 .9.3 0 1.2-.7.7-1.2 2.5-1.2 4 0 2.5.2 2.7 1.9 1.8 2.6-1.3 3.1-1.3 3.1.3 0 .8-1.1 2.4-2.5 3.7-1.9 1.8-2.5 3.4-2.5 6.4 0 2.9.3 3.7 1 2.6.5-.8 1.3-1.1 1.7-.6.4.4 0 1.3-1 2-1.5 1.2-1.7 3.3-1.7 18.4v17l4.3 3.7c2.3 2 3.3 3.3 2.2 2.9-1.8-.7-1.9-.6-.5 1.2 1.4 1.8 1.4 1.8-.3.5-.9-.8-1.5-1.6-1.2-1.9.7-.7-2.5-4.2-3.8-4.2-.6 0-.2.9.8 2 1.6 1.8 1.6 2 .2 1.4-1.5-.5-1.6 1-1.6 16.1L0 344.3l7.2 9.1C17.9 367 36 388 37.1 388c3.2 0 1.3-4-6.9-14.3-6.5-8.1-9.8-13.2-11.6-18-1.4-3.7-2.3-6.7-1.9-6.7.3 0 2.6.7 5.2 1.7 4.2 1.5 5.1 2.4 10 10.7 12.5 21.1 15.4 26.7 14.2 27.9-1.8 1.8-1.3 2.9 1 2.2 1.5-.5 1.9-.4 1.4.5-.4.7-1.9 1-3.9.6-2.2-.4-4.7.3-9.1 2.4-3.3 1.6-5.2 3-4.2 3 .9 0 1.7.3 1.7.8 0 1.5-6.6 4.2-9.5 3.9-1.7-.2-1.1.1 1.3.6 2.7.7 4.1 1.5 3.8 2.3-.3.8.3 1 1.6.6 1.4-.3 1.9-.1 1.4.6-.4.7-1.2 1.2-1.7 1.2s-1.9.9-3.1 2c-1.2 1-2.5 1.7-2.9 1.4-.8-.5-9.9 4.3-9.9 5.2 0 .2 1.9-.5 4.1-1.7 3.4-1.7 4.3-1.8 5-.7 1.1 1.7 1.1 2.6-.1 3.3-1 .6-.7 5.9.4 8.5.5 1.3-.6 1.6-7.6 1.6-11.6.1-15.8 1-15.8 3.4 0 1.9.8 2 15.8 2 19.7 0 42.7-1.4 64.7-4 17.5-2.1 39.5-5.6 40.3-6.5.7-.6-3.8-.8-16.5-.5-11 .2-13.1-.3-11.2-2.6.9-1.1.8-1.8-.2-3.1-.9-1.1-1-1.4-.2-.9.7.4 2.6-.3 4.2-1.5 2-1.4 5.1-2.4 8.8-2.8 5.7-.5 5.7-.5 1.8-1.1-3-.4-5.1 0-8.4 1.7-2.4 1.3-4.8 2.3-5.2 2.3-1.6 0-.9-1.8.9-2.4.9-.3.5-.4-.9-.2-2.3.2-2.6-.1-2.7-3.1-.1-1.9-.4-3.8-.7-4.3-.3-.5.3-1.4 1.2-2 1.6-1 1.6-1-.2-.5-1.7.4-2.4-.3-4-4.5-1.9-4.9-3.6-6.5-5.8-5.4-.7.3.2-.6 1.8-2.1l3-2.6-2.7 1.2c-2.1.9-3.1.9-4.2 0-1.2-1 1.6-4.1 16-18.4 12.5-12.4 17.3-17.8 16.9-18.9-.4-.9-.2-1.9.4-2.3.7-.3.8 0 .5.9-1.1 2.8.7 1.7 7-4.3 12.3-11.8 26.5-23.8 38.4-32.6 6.8-5 11.7-9.2 11.1-9.6-.8-.4-.7-.9.2-1.5.7-.4 1.4-.3 1.7.4.2.7.8.9 1.4.6.6-.4.7-.9.1-1.3s-.5-1.9.3-4.1l1.2-3.5.1 3.8.1 3.8 5.1-2.8c5.6-3.1 8.9-7.8 8.9-12.8 0-.8.5-1.5 1.1-1.5.7 0 .9 1.2.6 3.2l-.6 3.3 1.4-3c.8-1.7 1.5-3.7 1.5-4.5.1-.8.6-.2 1.2 1.4.6 1.6.7 3.1.2 3.5-1.3.9-1.6 3.1-.4 3.1.5 0 1-.8 1-1.8 0-1.5.2-1.5 1.1-.2.8 1.2.9 1 .4-.9-.5-1.5-.3-2.1.3-1.7.6.3 2.1-.8 3.3-2.6 1.9-2.6 2.3-4.4 2.2-9.8-.1-6-4-21.1-4.2-16.4-.1 1.2.6 4.1 1.4 6.4 1.7 4.9 1.9 6.8.6 5.4-.6-.5-1.7-3.6-2.5-6.8-.9-3.2-1.8-6.2-2.2-6.5-.7-.7.6 6.6 1.7 9.7.5 1.3.8 4.2.8 6.5l-.1 4.2-.9-5c-1.1-6.4-3.7-14.6-3.8-12-.1 1.1.6 4.2 1.4 6.9 1.7 5.7 2 10.6.5 10.6-.5 0-1-1.6-1-3.5 0-4.5-2.1-9.4-5.1-12l-2.3-2 1.9 3c3.8 6 4.5 8.1 4.5 13.1 0 3.6-.5 5.6-1.6 6.5-1.5 1.2-1.6 1.1-1.1-.6 1.9-6.2 1.8-7.6-.2-11.8-1.2-2.4-3.2-5-4.6-5.7-1.4-.7-2.5-2-2.6-2.9 0-1-.2-1.2-.6-.4-.2.7.3 4.7 1.1 8.9 1.9 9 1.8 8.4.6 8.4-.5 0-1-.8-1-1.8 0-2.5-3.8-14-3.9-11.8-.1 1 .6 4.5 1.5 7.8 1 3.9 1.2 6.4.6 7-.6.6-1.4-.8-2-3.9-.6-2.6-1.8-6.6-2.6-8.8l-1.6-4 .7 4c.3 2.2 1 5 1.4 6.3 1.2 3.2 1.1 10.2-.1 10.2-.5 0-1-1.2-1-2.8 0-3.3-3.1-10.2-5.3-12.1-2.2-1.8-2.2-1.6 1.3 5.3 3.3 6.5 3.8 12 1.5 15.3-.8 1.2-1.3 2.8-1 3.5.3.8.1 2.5-.4 3.9-.8 1.8-.9 1.2-.4-2.6 1.3-10.8.8-16.1-1.7-19.8-1.4-2-2.6-3.5-2.7-3.3-.1.1.6 2.6 1.7 5.4 2.3 6.1 2.5 7.9.7 9.7-1.1 1-1.5.6-2.6-2.9-.6-2.2-2.1-5.2-3.1-6.6-1.9-2.5-1.9-2.4 0 2.6 2.5 6.7 3.4 14.3 2.1 17.4l-1 2.5v-3c-.1-5.1-4.5-22.4-4.9-19.2-.2 1.6.1 4.2.7 5.9.6 1.7 1.1 4.3 1 5.7v2.6l-1-2.5c-.6-1.4-1.4-5-1.9-8l-.9-5.5.4 6.5c.2 3.6.7 7.5 1.1 8.7.3 1.3.2 2.3-.3 2.3s-1.7-3.5-2.6-7.8c-1-4.7-1.5-6-1.2-3.2.2 2.5.6 7.2.9 10.5l.6 6-1.3-5c-1.7-6.3-3.2-9.2-5.8-10.5-1.9-1.1-1.8-.9.4 2.7 3.3 5.3 6.8 17.3 5.7 19.2-.7 1.2-.9.7-1-1.8 0-2.8-.2-3.2-1.5-2.1-1.2 1-1.3.6-.8-2.3.6-3.9-1.6-9.1-4.6-10.7-3.2-1.7-3.4-1.2-.8 2 3.6 4.3 4 6.4 2.7 13.6-1.3 6.8-3.5 9.1-2.4 2.6.4-2.6.1-4.9-.9-6.8-1.8-3.5-7.4-9-8.3-8.2-.3.4.2 4.1 1.1 8.3 1.4 6.2 1.5 8.1.5 10-.7 1.3-.9 3.2-.5 4.5.5 1.6.4 2-.5 1.5-.8-.5-1-2.1-.7-4.4.5-2.9 0-4.7-2.9-9.6-3.8-6.4-3.8-5.6-.3 4.1 2.2 5.8 2.2 6.1.5 8.5l-1.8 2.4.7-3.1c.4-2.2-.2-5.1-2.1-9.8-1.4-3.7-2.9-6.5-3.2-6.2-.3.3.3 2.7 1.4 5.3 2.1 5.6 2.5 15.6.6 17.5-1.1 1.1-1.2.5-.6-2.8.8-5.1-.8-10.3-4.1-13.4-1.3-1.3-2.1-2.8-1.8-3.4.4-.6-1.3.6-3.8 2.7-2.6 2-5 3.7-5.6 3.7-.5 0-2 1.1-3.2 2.4l-2.2 2.3 2.4-.4c2.3-.5 2.4-.3 2.4 5.7.1 6.7-.6 7.2-1.7 1.3-.5-2.4-.7.7-.8 8.6 0 6.8-.5 12.8-.9 13.2-.4.4-.7-5.1-.6-12.4.2-10.6 0-12.3-.8-8.7-.5 2.5-.7 6-.4 7.7.5 3-.5 10.7-2.6 19.3-.5 2.3-.6 1.4-.1-2.5 1.3-11.1.9-17.5-1.2-19-1.8-1.4-1.8-1.6.5-7.2 1.3-3.2 3.4-7.3 4.7-9.1 1.2-1.7 2-3.7 1.7-4.2-.4-.6-.2-.9.4-.8 1.4.4 12.7-10.8 15.3-15.2 1.2-1.9 4.8-6 8.2-9.1 4-3.7 5.6-5.8 4.8-6.3-.7-.4-1.2-.2-1.2.4 0 1-6 6.9-7.1 7-1.4 0 0-3.9 2.9-8.5 2-2.9 3-5.6 2.6-6.7-.3-1.1.1-2 1-2.4.9-.3 1.6-1.6 1.5-2.8 0-1.1-.3-1.5-.6-.9-.7 1.8-2 1.6-2.7-.2-.6-1.6 1.3-5.5 2.6-5.5.4 0 1.4 2.1 2.3 4.7 1.2 3.9 1.4 4.2 1.2 1.5-.2-2.2.1-3.2 1-3.2.7 0 1.3 1.2 1.4 2.7 0 2.8 0 2.8 1.7-.7 2.2-4.7 2.2-4.7 3.2-3 .6.8 1 1 1 .5-.1-.6-.7-1.9-1.5-2.9-.8-1.1-1.5-2.8-1.5-3.9 0-1-.4-1.6-.9-1.2-.5.3-.7 2.1-.4 4 .7 4.5-1.5 4.8-4 .5-1.7-2.8-1.5-3.5.6-3.1.5.1.5-.3.2-.9-.4-.6.1-2.1 1.1-3.3 1.1-1.3.6-1.1-1.2.6-1.7 1.5-3.4 2.4-3.8 2-.4-.4-.5-.1-.2.7.3.9-1.3 3.6-3.9 6.5l-4.5 5 2.3-5.5c1.3-3.1 3.5-7.3 4.9-9.5 1.4-2.2 2.8-5 3.2-6.3.4-1.2 1.1-2 1.6-1.7.5.3 1.2 0 1.6-.6.4-.8.3-.9-.4-.5-1.9 1.2-1.4-.7 1.3-4.6 1.4-2 2.5-4.1 2.5-4.6s.9-1.7 2-2.7c2.9-2.6 2.5-.5-1 4.6-1.8 2.8-2.6 4.7-2 5.3.7.7 1.4.6 2.2-.2.9-.9.9-1.2-.1-1.2-.7 0 .8-2.4 3.3-5.4 2.5-2.9 4.6-6 4.6-6.8 0-.8 1.7-3.4 3.7-5.9 6.9-8.3 6.7-8.4-1.5-.5-4.5 4.4-8.4 7.7-8.8 7.3-.4-.3 3.5-4.5 8.5-9.3 5-4.8 9-8.9 8.8-9.1-.2-.2-3.5 2.6-7.3 6.1-3.8 3.5-7 6.3-7.2 6.1-.5-.4 4.5-8.2 5.8-9 .6-.3.8-1.1.4-1.6-.7-1.2 4-10.5 6.9-13.7 1.1-1.2 1.7-2.2 1.2-2.2-1.3 0 4.4-5.8 10-10.1 2.8-2.1 6.8-5.4 9-7.4l4-3.7-4.7 3.3c-2.6 1.7-7.2 5.4-10.3 8.1-3 2.7-5.5 4.6-5.5 4.1.1-1.7 5.7-7.1 11.5-11.1 3.3-2.2 7.6-5.4 9.5-7.2 3.4-3 3.3-3-2.5.7-3.3 2-6.9 4.5-8.1 5.5-1.1 1-2.4 1.8-2.8 1.8-1.8 0 2.2-3.5 10.1-8.7 4.5-3 8.8-6.2 9.5-7.1 1.6-2 1.1-1.7-9.1 5-7.4 4.8-9.1 5.6-9.1 3.9 0-1.3 6.3-8.9 8.8-10.7 1.9-1.3 2.1-1.9 1.1-3-1-1.2-1-1.5.1-1.2.8.2 1.4-.3 1.5-.9 0-1.3 4.5-4.9 4.5-3.7 0 .4 1.2-.3 2.8-1.7 3-2.7 9.2-6.3 9.2-5.4 0 .3 1 0 2.2-.6 1.2-.7 4.7-1.5 7.8-1.9l5.5-.7-5.3-.2c-2.9 0-6.9.6-8.9 1.4-5 2.1-5.1 2-1.2-2.3 9.1-9.6 9.3-11.8.3-2.6-5.4 5.5-12 11.7-14.7 13.8-4.2 3.3-4.8 3.5-5.3 1.9-1.6-5.1-2.1-5.5-1.7-1.3.4 3.5-.1 5.5-1.9 9-1.4 2.5-2.9 4.4-3.4 4.3-.5-.1-1.1.7-1.1 1.8-.2 2.1-6.7 14.6-8.5 16.4-.7.7-.9-1.4-.6-6.2.2-4 0-6.7-.4-6-.5.7-.7 4.3-.6 8.2.1 5.9-.3 7.9-2.6 12.5-1.6 3-3.4 6.2-4 7-.7.8-2.3 4-3.6 7-1.4 3-2.8 5.7-3.1 6-.4.3-1.6 2.6-2.8 5.2-1.2 2.7-2.6 4.8-3.1 4.8-.4 0-1.1.8-1.3 1.7-.3 1-.5-.7-.6-3.8-.2-12.6-5.7-31.5-10.7-37-1.6-1.8-1-4.4.7-3.3 2.9 1.8 9.4 21.1 10.8 31.9.8 6.9.8 7 1 1.8.2-9.8-4.5-26-10.4-35.2-1.4-2.3-2.3-4.6-2-5 .3-.5-.4-.7-1.5-.4-2.3.6-2.6-.6-.7-2.6 1-1.1 1-1.3 0-.7-1.6.9-1.7-.6-.1-2.2.7-.7 1-1.2.6-1.2-.5 0-9.4 10.9-11.6 14.4-.7 1.2.3.3 2.2-1.8 4.7-5.1 4.6-3.6 0 2.1-2 2.4-3.4 4.6-3.1 4.9.3.3 2.7-2.4 5.3-6 3-4.1 5.2-6.2 5.8-5.6 1 1-12.2 15.3-13.3 14.5-.4-.2-1.3 1-2 2.6-1.4 3.2-3.5 3.4-3.8.3-.3-1.8-.2-1.8.6.1.7 1.8 1 1.6 2.5-1.9.9-2.2 2.2-4.6 2.8-5.4.7-.8 1.3-2 1.4-2.8.1-.7 2.5-4.8 5.3-9 2.8-4.1 5.1-8.2 5.1-9 0-.7 1.8-2.3 4-3.4s4-2.3 4-2.5c0-.3-1.3.1-3 1-1.6.8-3.2 1.5-3.5 1.5-1 0 5.3-8.6 9.2-12.7 2.1-2.1 4.3-5.1 4.9-6.7.6-1.7 1.6-3.2 2.4-3.4.9-.3 1 0 .4.9-2.1 3.4-.8 5.3 1.6 2.4 1.1-1.3 1-1.4-.6-.9-1.8.7-1.8.6.1-1.5 1.1-1.3 1.9-2.6 1.7-2.9-.2-.4.2-.8.9-1.1.8-.2.9.1.4 1-.5.8.1.6 1.2-.4 2.1-1.8 2.2-1.8 4.6 1.5 3.5 4.7 5.4 8.7 7.7 16.5 2 6.7 2 6.7 1.5 1.8-.6-5.6-5.2-16.2-8.5-19.5-1.8-1.8-2-2.4-.9-3.1.8-.5 1.9-.9 2.5-.9 1.6 0 8.2 19 9.3 26.5.7 5.2.9 5.5 1 2 .1-5.2-2.1-13.6-6-23.1-2.8-6.7-3.3-7.3-5-6.3-1.1.6-2.8.8-3.7.6-1.2-.3-.7-.8 1.8-1.9 7.8-3.5 7.5-3.6 10.5 4.7 3.5 9.6 2.7 10.8-.9 1.5-1.5-3.8-3.1-7-3.6-7-.4 0 .7 3.5 2.4 7.7 4.8 11.5 5.9 17.2 5.4 28.2-.3 5.3-.1 8.5.3 7.1.4-1.4.8-6.1.8-10.5.1-5.6.4-7.5 1.1-6.5.5.8 1 2.7 1 4.2 0 1.6.5 2.8 1.1 2.8.6 0 .8.7.5 1.6-.3.8-.2 1.2.4.9.6-.3 1-3 1-5.8 0-5.6-4.4-33.4-5.4-34.4-.9-.9-.7 4.6.3 9.1.5 2.1.6 4.8.2 5.9-.6 1.5-1.5-.1-4.2-7.4-1.8-5.2-3.5-8.7-3.7-7.9-.1.8-2.7 2.5-5.6 3.8-3.2 1.4-7.9 4.9-12.1 9-5.6 5.4-6.5 6-4.8 3.2 2.5-4.3 5-13 3.7-13-.2 0-1.5 2.1-2.8 4.7l-2.5 4.8.3-4.8c.1-2.6.1-4.7-.1-4.7-.1 0-1.6 2.6-3.2 5.7l-2.8 5.7-1.6-2.9c-1.3-2.6-7-8.5-8.1-8.5-.2 0 .2 2.5 1.1 5.6 2 7.8 1 7.9-1.2.2-2.3-8-3.2-6-1.1 2.2 2.4 9.2 1.8 10.5-.9 2.1-1.3-4-2.9-7.9-3.6-8.5-.9-.8-1-.6-.5.9 1.9 5.1 5.6 18.9 5.2 19.2-.2.2-1.3-2.8-2.5-6.7-1.2-3.9-2.6-8.3-3.2-9.7-1.6-4.4-2-1.9-.4 3.2 1.5 5.2 1.2 7.5-.4 3.1-1.3-3.3-4.2-7.8-4.8-7.2-.2.2 1 3.4 2.7 7.1 1.6 3.8 2.8 7 2.6 7.2-.2.2-2-2.5-3.9-6-2-3.5-4.3-7-5.2-7.7-.9-.7 0 1.5 2 5s3.4 6.5 3.1 6.7c-.2.2-2-1.8-3.9-4.4-1.9-2.7-4.5-5.7-5.8-6.8l-2.2-2 1.1 2.1c.7 1.2 2.7 4.2 4.6 6.6 1.8 2.5 4.1 5.8 5.1 7.4l1.7 2.9-2.7-3c-1.6-1.7-5-5.5-7.8-8.5-6.1-6.8-4.5-3.4 2.4 5.2 5.4 6.6 9.3 14 10.3 19.5.9 5.3-.8 3.8-2.2-1.9-1.4-6-4.2-10.4-11.9-18.5-5.6-5.9-4.7-4.2 3.6 6.7 4.3 5.7 8.4 15.1 7.9 17.9-.2.9-1.3-1.1-2.6-4.5-3-8.3-7.8-14.1-15.1-18.4-1.1-.7-1.7-7.1-2.7-32.2-.6-17.2-1-31.6-.7-32.1.2-.4-1.1-.7-3-.7s-5.6-.2-8.3-.5c-3.8-.3-3.4-.1 1.9.9zm-52.6 8.1c-.4.8-1.5 1.2-2.9.9-2-.5-2.1-.4-.5.6 2.1 1.4 2.1 2.9-.1 10.9-1.7 5.9-1.9 6.2-3.4 4.7-.9-.9-2-1.6-2.5-1.6-.6 0-4.4-16-3.9-16.7.1-.1 1.3-.4 2.9-.8l2.7-.7.2 7.3.2 7.4.3-7.2.4-7.2 3.2-.3c3.4-.3 4.2.4 3.4 2.7zm38.4 82.1c3.2 1.9 6.2 4 6.5 4.6.5.7.2.8-.7.3-.8-.4.3.7 2.4 2.4 2 1.8 3.7 3.7 3.7 4.3 0 .6-.9.3-1.9-.6-1.1-1-2.4-1.5-3-1.2-.6.4-4.2-1-8.2-2.9-3.9-2-7.3-3.4-7.6-3.2-.2.3 3.1 2.4 7.4 4.6 7.3 3.8 15.9 9.9 15 10.7-.2.2-5.3-2.1-11.3-5.1-10.3-5.2-14.4-6.5-14.4-4.7 0 .9 10.1 7.2 11.5 7.2.6 0-.1-1-1.5-2.1-2.1-1.7-1.6-1.6 2.7.5 2.8 1.4 5.4 3 5.8 3.6.9 1.4-.7 1.2-2.9-.5-1.1-.8-2.9-1.2-4-.9-1.4.3-4.1-.7-7.8-3.2-5.3-3.5-5.5-3.8-4.7-6.7.4-1.6.8-3.2.7-3.6-.5-4.2 1.1-4 10.6 1.4 4.4 2.5 8.1 4.5 8.4 4.5 1.7 0-2.9-3.2-8.5-6.1-3.8-1.8-7-3.4-7.2-3.6-.5-.3 1.9-3.3 2.6-3.3.3 0 3.2 1.6 6.4 3.6zM138 170c0 .6-.7 1.3-1.5 1.6-.8.4-1.5 1.1-1.5 1.8s-4.7 6.1-10.5 12.1c-5.7 6.1-10.5 11.4-10.5 11.9s1.2-.3 2.7-1.8c4.5-4.5 5.1-1.4.7 3.4-4 4.3-8 10-7.1 10 .3 0 2-2 3.8-4.5l3.3-4.6 2.5 2.5 2.5 2.5-2.4 2.6c-1.8 1.9-2.6 2.2-3.7 1.4-.7-.6-1-1.6-.6-2.2 1-1.7-2.1.5-3.5 2.5-.7 1-1.8 1.6-2.3 1.3-.5-.3-.6 0-.3.8s-.3 2-1.2 2.8c-1.6 1.3-1.6 1.2-.6-.7.6-1.2.9-2.4.5-2.7-.3-.3.9-2.9 2.6-5.7 3.6-5.9 3.7-6.2 1.4-5.3-1.7.7-1.7.6 0-2 .9-1.5 2.5-3.9 3.5-5.5.9-1.5 2.9-3.7 4.3-4.9 5.3-4.5 8.5-7.9 10.9-11.3 4.7-6.6 7-8.6 7-6zm-11.6 135.4c1.7 2.2 2.1 4.2 2.1 10.6 0 4.4-.4 8.4-1 8.9-.7.7-1-1.9-1-7.8 0-7.3-.3-9.3-1.9-11-2.6-2.8-2.9-2.1-1.1 2.2 1.6 3.8 1.8 12.5.5 16.7-.7 2.3-.8 2.2-.9-1-.1-4.5-1.6-9.6-3.6-12.7-2.1-3.2-2.9-2.4-1.4 1.3 1.5 4 3 16.4 2.3 18.9-.5 1.3-1.3-.9-2.5-6.8-2.9-14.3-2.8-15 1.1-18.9 1.9-1.9 3.9-3.4 4.4-3.3.6.1 1.9 1.4 3 2.9zm-56.9 26.3c.9 5.2 1.3 6.2 1.4 3.3.1-1.6.4-2.1 1.1-1.4.6.6-.4 6.4-2.9 16.9-8.6 34.8-8.5 34.5-6.4 36.1 1.6 1.4 1.5 1.4-1.5.9-2-.4-3.9-.2-4.7.5-1.2 1-1.5.9-1.5-.4 0-.9-.6-1.6-1.4-1.6-.8 0-1.7-.8-1.9-1.8-5.4-19.3-7.1-28.9-6.2-34.2.9-5.3 2.1-5.1 3 .6.3 2.5.9 4.4 1.1 4.1.3-.3.1-3.1-.5-6.2-.8-4.2-.8-6.2.1-7.8 1.1-2 1.3-1.9 2 2.3.4 2.5 1.2 12.1 1.7 21.3.5 9.2 1.2 17.1 1.6 17.5.8.8-.2-24.4-1.5-36.8-.7-6.9-.6-7.6 1.4-9.2 1.2-1 2.4-1.8 2.7-1.8 1.4 0 1.9 7.1 2 26.9.1 13.9.4 19.5 1 17.1.5-1.9.6-12.7.2-23.9l-.6-20.4 3.4-2.8c4.5-3.8 5.7-3.6 6.4.8zm30.6 14.1c-1.7 6.7-4.7 15.4-6.7 19.4-2.7 5.3-3.2 6.9-1.8 5.8 1.1-.7-.8 1.4-4.1 4.9-3.3 3.4-7.2 7-8.7 7.9-3 1.7-3.6 3.7-1.5 4.5.6.2.9.8.5 1.2-.4.4-2.2-.7-3.9-2.5-1.9-1.9-2.8-3.4-2.2-3.8.6-.4 2.4-3.4 4-6.7 1.6-3.3 6.7-12.8 11.3-21 4.5-8.3 9.6-17.9 11.3-21.5l3-6.5.9 3c.7 2.4.3 5.8-2.1 15.3zm-24.4-4.1c-.3 2.7-2.4 12-4.6 20.8-2.3 8.8-4.1 16.7-4.1 17.5 0 .8 2.7-3.9 6-10.4s6-12.5 6-13.2c0-.8.4-1.4 1-1.4.5 0 1.2-1.1 1.6-2.5.3-1.4 1-2.5 1.6-2.5.5 0 .8.3.6.7-2.4 5-8.1 19.8-8.4 21.9-.3 1.6-5.4 10.3-6.5 10.9-.4.3-.5 1.3-.2 2.1.5 1.3.1 1.5-1.8.9-1.3-.4-2.8-1.1-3.2-1.5-1.2-1 7.9-41.6 10.4-46.2 1.6-3 2.2-2 1.6 2.9zm-42.3 1.5c-.5 2.6-.3 3 .6 1.8.9-1.2 1-.7.7 2.5-.2 2.2-.2 3.2 0 2.2.9-3.7 2.3-.3 1.9 4.6-.3 3.9-.2 4.3.3 1.7l.7-3.5 1.2 2.8c.7 1.6 1.2 3.1 1.2 3.3 0 .3 1.8 5.1 3.9 10.7 2.2 5.6 4.3 11.8 4.6 13.7.7 3.1.6 3.3-.9 2.1-.9-.8-1.4-2.1-1.1-3.1.3-1-1.2-3.9-4-7.6-2.4-3.2-4.5-6.3-4.5-6.7 0-.9-3.6-9.3-5.1-12-1.6-2.9-2.2-10-1-13 1.4-3.7 2.2-3.4 1.5.5z"/><path d="M177.7 101.5c.6 1.1 1.3 7.4 1.7 14 .5 10.7 1.4 16 4.6 28.5.8 2.9.9 2.5.5-2.5-.3-4-.1-5.3.5-4 .8 2 .9 2 .9-.1.1-1.1-.8-6.9-1.9-12.9-1.1-6-1.8-11-1.6-11.3.7-.6 2.5 6.5 3.7 14.3 1.4 8.5 2.9 13 2.3 6.5-1.3-12.7-6.3-29-10.2-33-1.3-1.3-1.3-1.3-.5.5zm380.3-.7c0 .6.5 1.4 1.1 1.8.6.3.8 1.5.5 2.7-.3 1.1.4 4.5 1.4 7.6 1 3.1 2.4 7.5 3 9.8 1 4.1 2.3 5.3 3.5 3.4.3-.5-1.3-5.1-3.5-10.2-2.3-5-3.9-9.3-3.7-9.5.2-.2 2.3 4.1 4.7 9.6 4.1 9.5 4.5 10.1 6.9 9.6 1.4-.3 4.3-.8 6.4-1.2 2-.3 3.7-.8 3.7-1.1 0-.2-1.4-2.4-3-4.9-1.7-2.4-2.6-4.4-1.9-4.4 1.6 0 8 7.1 7.3 8.2-.3.4.6.8 2 .8s2.6-.4 2.6-.8c0-1.8-9.9-10.4-11.1-9.7-.7.5-1 .4-.6-.2.4-.6-.5-2.1-1.8-3.3-1.5-1.4-2.5-1.8-2.5-1.1 0 1.1-.3 1.1-1.5.1-.8-.7-1.5-1.9-1.5-2.7 0-1.4-4.1-3.5-9.3-4.8-1.6-.5-2.7-.3-2.7.3zm-134 12.9c-.2 4 .1 60.7.3 60.9.1.1 4.4 0 9.6-.3l9.4-.6-.6-30.1c-.4-16.6-.7-30.2-.7-30.4 0-.6-18-.1-18 .5zm20 29.8V174h3.9c2.1 0 6.6.3 10 .6l6.1.7v-61l-6.1-.7c-3.4-.3-7.9-.6-10-.6H444v30.5zm-32.5-28.6l-3.9.6v8.5c.1 4.7.2 18.3.3 30.3l.1 21.8 7.3-.7c3.9-.3 7.4-.8 7.5-1 .2-.1.1-13.8-.3-30.3l-.8-30.1-3.1.1c-1.7.1-4.9.5-7.1.8zm155 30c-3.6.5-4 .9-4.3 3.8-.3 2.6-.8 3.3-3.4 3.8-1.6.4-5.4.4-8.4 0-3.6-.4-5.4-.3-5.4.4 0 .6-.9 1.1-2 1.1-1.6 0-2 .7-2 3.5 0 2.3-.5 3.5-1.4 3.5-1.8 0-2.7 4.7-1.4 7.9.7 2 1.1 2.2 1.8 1.1.5-.8.9 1.9.9 7 0 4.5.2 8.5.5 8.7.2.2 7-.5 15.2-1.6 8.1-1.2 14.9-2.1 15.1-2.1.2 0 .3-8.1.3-18 0-16.5.1-18 1.8-18 1.4 0 1.5-.2.2-1-.8-.5-1.9-.9-2.5-.8-.5 0-2.8.4-5 .7zm-422.1 9.8c1.3 3.7 4 10.9 6 16 7 17.8 2.8 11-5.7-9.2-1.1-2.8-2.4-5.4-2.8-5.9-1.5-1.7 1.2 6.6 4.8 14.6 4.8 11 6.2 16.1 6.7 24.8.5 6.8.5 7.1-.4 2.5-2.5-13.3-3.6-16.8-7.8-26.7-7-16.2-6.7-12.8.5 5.5 3.6 9.1 7.8 28.6 6.9 32-.4 1.5-.2 1.7.7.8.8-.8 1.2-5.3 1.2-13.6 0-12.8 1.5-13.9 1.8-1.4.2 7.7 1.7 8.3 1.7.8 0-6.9-2.5-16.5-7.6-28.8-2.4-5.8-4.2-10.7-4-10.8.2-.2 2 1.9 4 4.6 4.1 5.5 7.3 13.6 8.3 20.7.8 6 2.2 6.6 1.6.6-1.3-12.7-5.8-22.5-12.4-26.9-2.1-1.4-3.9-3.2-3.9-3.9 0-.7-.4-1.5-.9-1.9-.6-.3.1 2.5 1.3 6.2zm437.5 29.7c-.4.4-33.1 4.5-58.7 7.4l-15.3 1.7v12.7c.1 22.9.4 36.4.8 33.5.3-2.1 1-2.7 2.8-2.7 1.3 0 3-.3 3.9-.6 1.2-.5 1.6 0 1.6 1.9 0 3.2.6 3.6 4.8 3l3.4-.6-.7-13.9c-.8-14-.5-15.7 2.8-15.8.4 0 .7 6.8.7 15.1v15.1l5.8-.7c3.1-.4 5.8-.8 5.9-.9.1-.1.3-7.1.4-15.6l.1-15.5-4.9-1.1c-3.5-.9-4.1-1.2-2-1.3 2-.1 2.7-.6 2.7-2.1 0-2.5 3-2.7 3.1-.3 0 1 .5.3 1.2-1.6.7-1.9 1.9-3.6 2.7-3.9 1-.2 1.1-.1.4.5-.9.6-.8 1.1.2 2.1 1.2 1.1 1.4.9 1.4-.8 0-1.1.7-2 1.5-2s1.5-.5 1.5-1c0-1.8 1.7-1.1 2.3.9.3 1.5 1.1 1.7 3.3 1.3 2.8-.5 2.8-.6.6-1.1-2-.5-1.8-.8 2-1.8 5.7-1.6 10.7-2.5 11.2-2.1.2.2 1.4-.6 2.7-1.7 1.2-1.1 1.9-1.4 1.5-.8-.5.9-.1 1.3 1.1 1.4 1 0 2.7.2 3.9.4 1.4.3 2.5-.3 3.2-1.8.9-1.9 1.1-2 1.1-.3.1 1.5.3 1.6 1.7.6 1.3-1.1 1.6-1 2 .8.4 1.4 1.1 1.9 2.2 1.5 2.5-.9 3.2-2.4 3.2-6.6 0-3.6-.1-3.7-3.8-3.7-2.1 0-4.1.2-4.3.4z"/><path d="M501 248c-.2 31.1-.3 60-.3 64.2 0 4.3-.3 7.8-.6 7.8s-.7 6-.8 13.2c-.2 7.3-.6 14-1 14.8-.4.8-.8 2.8-.9 4.5-.8 11-3.5 26.2-6.5 37-3.3 11.2-3.4 12.5-1.3 12.5 4.7 0-.8 1.2-19.1 4-24.8 3.9-26.7 4.4-19.7 4.8 2.8.2 5.2.8 5.2 1.4 0 .6-.9.8-2 .5-1.3-.3-2 0-2 .9 0 .8.9 1.4 1.9 1.4 1.1 0 2.2.4 2.6.9.5.9-2.2 1.6-8.5 2.3l-2.5.3 2.3 2.3 2.2 2.2-4.7.1c-3.6 0-4.3.3-2.8.9 1.9.8 1.9.9-.2.9-2.2.1-3.4 2.1-1.2 2.1 2.3 0-.4 2-2.9 2.1-1.6 0-2.1.3-1.2.6.8.3 2.8 1.7 4.3 2.9 2.6 2.2 2.7 2.4.7 2.4-1.1 0-3.8-.9-5.9-2-2.2-1.1-5.9-2.2-8.3-2.5-3.3-.4-3.7-.3-1.8.4 9.5 3.4 20.1 12.1 14.8 12.1-.7 0 .1.9 1.8 1.9 1.8 1.1 3.6 2.5 4 3.3.5.8-.3.6-2-.5-3.6-2.4-11.2-4.7-15.6-4.7-1.9 0-4.6-.4-6-.8-2.1-.6-1.7-.8 2.5-1.3 3.6-.4 1.7-.7-7-.9-8.6-.2-10.9-.5-8-1 4-.7 4-.7.6-.9-1.8 0-5.5-1.2-8.3-2.6-2.7-1.4-5.8-2.5-6.9-2.5-2.3 0-2.4-.8-.4-3.4.8-1.1 1.5-3.3 1.5-4.8 0-2.5.7-3.2 4.6-4.8 2.5-1.1 5.4-2 6.5-2 1 0 6-1.4 11-3 5.1-1.7 12.4-3.5 16.3-3.9l7.1-.8-7.6-.2c-8.1-.1-11.4-1.6-8.5-4 1.7-1.4 3.1-10 2.1-13-.3-1.2-1.5-2.1-2.6-2.1-1.5 0-1.9.7-2 3.7-.1 3.7-1.6 10-1.8 7.6-.1-.6-.9-1-1.8-.9-1 .2-7.9.7-15.3 1.1-7.4.4-15.5.8-18 1-2.5.2-12.2.4-21.7.5l-17.2.1-.3 2.5c-.3 2.2-.8 1.7-4.7-4-2.4-3.6-5.7-7.8-7.3-9.5-4.3-4.3-5.5-4.3-23.3 1.4-3.4 1.1-4.1 1.1-5-.2-1-1.4-1.9-1.4-7.6.1-3.6.9-6.7 1.6-7 1.6-.2 0-.4-1.2-.5-2.8 0-1.5-.2-3.5-.5-4.5-.3-1.5.8-2.3 6.1-4.2 8.2-3 16.1-11.1 18.7-19.2 3.1-9.9-1.3-29.5-8.4-37.4-3.7-4.1-10.7-6.9-12.6-5-.6.6-1.8.6-3.3.1-1.6-.7-2.4-.6-2.4.1 0 .6-.7.9-1.4.6-1-.4-1.3-.1-1 .7.7 1.7-1.8 2.7-3.7 1.5-2.5-1.6-3.3-.9-1.3 1.2l1.9 2.1-4-.7c-2.2-.4-5.7-1.6-7.7-2.7-2.1-1-3.8-1.4-3.8-.8 0 .5-1.8 1-4 1-2.8 0-4.5.6-5.7 2-1 1.1-2.2 2-2.7 2s-1.5.8-2.2 1.7c-1.2 1.7-1.5 1.6-4.5-1.2-3.1-2.9-3.2-1.8-.1 1.7 1.3 1.5 1.2 1.7-.6 1.5-1.1 0-1.8-.5-1.5-1 .5-.9-7.7-9-8.4-8.3-.2.1 0 1.7.3 3.5.5 2.1 1.1 3 2 2.7 1.7-.7 1.7-.2.1 2.5-1 1.7-.9 2.3.1 2.6.6.3.9.9.6 1.4-.6 1 5.6 34 6.6 34.9.3.3.5 1.6.6 3 .2 5.2 1.4 12.4 2.3 13.3.5.5 1.8.4 3-.2 1.7-1 2-.9 1.5.4-.4.8-.9 1.5-1.3 1.5s-1.3 1.2-1.9 2.6c-1.6 3.5-3.2 2.1-3.3-2.9-.1-2.8-.3-3.4-.6-1.7-.9 4.6 1.9 16.4 5.8 24.9 2.4 5.1 3.6 8.8 3 9.5-.4.6-.8 2.6-.8 4.4 0 2.9.2 3.1 1.5 1.8.8-.8 1.5-3.3 1.6-5.5.1-4 .1-4 1.4-1.6.7 1.4 1 3.1.6 3.7-.4.7-.3.8.4.4s1.2-.1 1.2.7c0 .7 1.4 3.9 3.1 7 2.2 4.1 2.6 5.5 1.5 5.1-2-.8-2-.7 0 4.7.9 2.4 1.6 5.7 1.5 7.3-.1 1.6.5 3.9 1.4 5.2.8 1.3 1.5 2.7 1.5 3.2 0 1-7.6-5.4-15.3-13-4.5-4.5-5.4-5.1-4.2-2.7.9 1.6 5.1 6.6 9.5 10.9 8.3 8.5 12.3 13.4 11.4 14.3-1 .9-4.4-.5-4.4-1.9 0-.8-.4-1.4-.8-1.4-1.7 0-2 1.3-1 3.6.8 1.7 1.7 2.3 3 1.8 1-.3 1.8-.2 1.7.3-.5 3.1.2 3.4 9.1 3.2 5-.1 9.3.1 9.6.4 1 1-1.6 4.7-3.3 4.7-2.7 0-1 .8 3.2 1.4 6.1 1 7.3 3.2 1.4 2.7-.8-.1-2.6.2-3.9.7-2.3.8-2.2.9 1.3 1.6 2 .4 3.7 1.2 3.7 1.8 0 .5-.8.7-1.7.4-1-.4-1.4-.4-1 0 .4.4-.1 1.3-1.1 2.1-.9.8-1.2 1.2-.7 1 .6-.3 1.8.1 2.8.8 1.6 1.1 1.5 1.4-1.6 2.8-4.1 2-15.5 2.4-18.6.8-1.2-.7-2.9-1-3.6-.7-.7.2-1.5-.4-1.8-1.4-.3-1.1-.1-2 .3-2.2.4-.2 1.1-2.9 1.4-6l.5-5.7-5 3.2c-4.3 2.7-5.5 4.3-7.6 9.2-1.3 3.3-2.7 9.4-3.1 13.5l-.7 7.5-3.5.3c-2 .2-4.7-.1-6-.7-1.9-.8-2.1-1-.6-1 1.2-.1 1.6-.6 1.2-1.7-.3-.9-.6-4.4-.6-8 0-5.2-.3-6.2-1.5-5.8-1.2.5-1.5 2.5-1.5 9v8.4h-16v-3.5c0-3.3-.1-3.4-2-2.3-1.1.7-2 1.8-2 2.5 0 1.7 1.7 1.7 2.3 0 .4-.7.6-.6.6.4.1 1.9-2.7 2.9-8.7 2.9h-4.3l.7 25.7c.4 14.2.8 26.7.9 27.8.1 1.1.3 3.7.4 5.7l.1 3.8 23.9-.3c13.2-.1 24.2.1 24.6.5.7.7 2.4 19.3 2.8 30 .1 3.2.7 5.9 1.2 6.2.6.2.9-3.7.8-10.8-.2-9.9-.1-11.2 1.5-11.4 5-.6 5.8-.8 6.5-1.7.5-.6.7 0 .4 1.3-.4 1.9-.3 2.1.8 1.2.8-.7 1.7-2 2-3.1.9-2.9 5.3-2.6 5.3.3 0 1.3.2 3.4.5 4.7.8 3-.7 6.2-1.6 3.8-.3-.9-.4-2.6-.2-3.7.3-1.8.2-2-1-1-.8.7-1.3 1.5-1.2 1.8.1.4-.3.9-.8 1-3.1 1.1-4.7 2.7-6.6 6.3-1.1 2.3-1.8 4.3-1.6 4.6.3.2.8-.5 1.2-1.7.4-1.2 1.3-1.9 2-1.7.7.3 1.8 0 2.5-.6 1-1 1.2-.8.6.6-.3 1-.6 2-.6 2.3 0 .2-.8 0-1.7-.3-1.2-.5-1.5-.2-1.1.9.4.9.3 1.9-.2 2.4-.4.5-.4 1.8 0 2.9.8 1.9.9 1.9.9-.2.1-1.4.6-2.1 1.4-1.7.8.3 2-.2 2.7-1.1.8-1 .9-1.5.1-1.5-.6 0-1.1.4-1.1 1 0 .5-.5 1-1.2 1-.6 0-.3-.8.7-2 1-1.1 2.2-1.7 2.6-1.4.5.3.9-.1.9-.8 0-.7.8-.1 1.8 1.4.9 1.6 2 2.8 2.4 2.8.5 0 .8.7.8 1.5s-.5 1.5-1.1 1.5c-.5 0-.8-.4-.4-.9.3-.5.1-1.2-.5-1.6-.5-.3-1-.1-1 .5s-.5.8-1.1.4c-.8-.5-.8-.1 0 1.3.7 1.4.7 2.3-.1 3.1-.8.8-.5.9 1.1.5 1.2-.3 2.4-.9 2.7-1.4.9-1.5 2.6-1 2 .6-.3.8-.3 1.5 0 1.5 1 0 3.4-2.8 3.4-3.9 0-.6.7-1.1 1.5-1.1s1.5-.7 1.5-1.5.4-1.5.9-1.5c.6 0 .9.9.8 2-.1 1.1-.5 2-1 2-.4 0-.5.4-.2 1 .3.5 0 1-.8 1-1.4 0-4.7 3-4.7 4.3 0 .4 1.8-.4 4-1.8s4-2.2 4-1.8c0 .5.9 1.4 2 2.1 1.1.7 2 .9 1.9.5-.5-2.8.3-3.2 4.8-2.7 2.6.3 5.1.8 5.5 1 .5.3 1.2-.5 1.8-1.8 1.2-2.9 6.8-9.4 7.5-8.7.2.3-.4 1.5-1.5 2.7-1.2 1.2-1.8 2.2-1.5 2.2.3 0-.4 1-1.5 2.2-2 2.1-2 2.3-.3 3.6 1.4 1 1.5 1.6.5 3.2s-.9 1.8.3 1.4c.8-.4 1.5-.1 1.5.6 0 .6.5.8 1.1.4.8-.4.7-.9-.2-1.5-1.2-.7-1.1-.9.1-1 .8-.1 1.8-.1 2.3 0 .4 0 .7-.4.7-1s-.7-.9-1.5-.6c-.8.4-1.7.1-2.1-.4-.4-.7.3-.9 1.7-.7 2.9.4 3.6 3 1.4 5.1-.8.9-1.5 1.9-1.5 2.4 0 .4 1.1-.5 2.6-2 1.4-1.5 2.2-3.2 1.8-3.9-.4-.7-.3-.8.5-.4.6.4 1.8.3 2.6-.4 1.4-1.2 3.1.2 2.1 1.8-.3.5.1.9.9.9s1.5-.9 1.5-1.9c0-1.2.7-1.8 2.1-1.8 1.9 0 1.9.1.4 1.6-2 2-.4 4.4 1.7 2.7.7-.6 2.5-1 4-.9 2.2.1 2.9-.4 3.3-2.6.4-1.5 1-2.8 1.5-2.8.4 0 .6.9.3 2-.3 1.3 0 2 .8 2 1.1 0 1.1.2-.1 1-.9.6-1 1-.3 1s1.7-.9 2.3-2c.6-1.1 1.5-2 2.1-2 .6 0 .6.6 0 1.9-.6 1-.7 2.1-.4 2.5.3.3-.5.6-1.8.6-2.3 0-2.3 0 .5 1.5 3.5 1.8 5.5 2 3.8.3-1.7-1.7-1.5-3.9.3-3.2.8.4 1.2 1.1.8 1.7-.4.6-.1.7.6.3.9-.6.8-1.3-.5-2.7-1.5-1.7-1.5-1.9-.1-1.9.9 0 1.9.9 2.2 2 .3 1.1 1 2 1.5 2 .4 0 .6-.9.3-2-.3-1.2 0-2 .6-2 .7 0 1 .4.7.9-.3.5.3 2 1.4 3.2 1.1 1.3 1.9 1.9 2 1.2 0-.6-.4-1.5-1-1.8-.5-.3-1-1-1-1.6 0-1 4.1 1 5.2 2.6.4.5 1.1.6 1.5.1.4-.5.2-1.1-.4-1.3-1.8-.6-1.6-2.3.2-2.3.8 0 1.5-.5 1.5-1 0-.6-.4-1-.8-1-.5 0-2.2-2-4-4.5-3.4-4.8-3.5-5.8-.3-2.4 2.4 2.6 3.4 1.1 1.6-2.4-.8-1.5-1-2.7-.5-2.7s1.2.9 1.5 2c.3 1.1 1.3 2 2.1 2 2 0 1.7 1.8-.3 2.2-1.6.3-1.5.6.5 2.3 1.2 1.1 2.2 2.5 2.2 3.1 0 .7.7 1.5 1.6 1.8 1.5.6 1.5.4.3-1.1s-1.2-1.6.4-1c1 .4 2.5.7 3.3.7.9 0 1.3.4.9 1-.3.5.3 1.8 1.5 3 2.5 2.5 2.7 1.4.3-1.3-1.7-1.9-1.7-2 .8-1.4 1.8.5 3.1.2 3.9-.8.8-.9 1.7-1.2 2.4-.7.6.5 2.1 1.2 3.4 1.5 1.8.4 2.2.2 1.8-.9-.3-.8-.1-1.4.4-1.4.6 0 1-.5 1-1 0-.6-.7-1-1.5-1-1.7 0-1.8-1.6-1.8-24.5v-13h2.9c2.7 0 2.9.3 3.6 5 1 8 .9 27-.2 28.1-.7.7-.2 1.8 1.5 3.4 1.4 1.3 2.5 3 2.5 3.7 0 .8.4 1.1 1 .8 1.1-.7.9-3.3-.4-5.4-.7-1.1-.5-1.3.7-.8.9.3 1.8.1 2.1-.6.3-.7.3-.2.1.9-.4 1.4 0 2.4 1 2.8 1.9.7 1.1 4.4-1.4 6.3-2.4 1.9-.5 1.5 2.7-.5 3-1.9 3.2-4.8.4-6.9-1.4-1.2-1.3-1.3.5-1.3 1.2 0 2.5.5 2.8 1 .4.7 1.3.6 2.7-.1 1.3-.7 1.8-.7 1.4 0-.4.5.3 1.5 1.4 2.1 1.9 1 1.9.9.8-1.5-.8-1.8-1.7-2.4-3.4-2.1-1.7.3-3.2-.6-5.9-3.5-1.9-2.1-3.5-4.1-3.5-4.4 0-.7 7 2.3 8.7 3.6 2 1.7 1.6-.5-.4-2.3-1-.9-2.5-1.8-3.3-2.1-1-.4-1.1-.6-.2-.6.7-.1 1-.6.7-1.1-.9-1.5 1.3-1.2 4 .6 1.4.9 2.5 1.3 2.5.9s1.1 0 2.4.9c1.6 1 2.7 1.2 3.1.6.4-.6-1.4-1.9-3.9-3-2.5-1-4.6-2.2-4.6-2.4 0-.3.7-.3 1.6.1.9.3 2 0 2.4-.7.4-.7 1.3-.9 1.9-.6.6.4.9 1.1.6 1.6-.3.5-.2 1.1.3 1.4.4.2.9-.5.9-1.6.3-2.8.8-3.1 3.2-1.8 2.6 1.3 2.9-.4.4-2-1.4-.8-1.2-.9 1.1-.4 2.1.5 2.7.4 2.2-.5-.4-.6-1.4-1.1-2.2-1.1-.8 0-1.4-.8-1.4-1.8 0-1.1.3-1.3.8-.5.4.6 2 1.6 3.5 2.2 1.5.6 2.7 1.4 2.6 1.8-.3 1.9.2 3.3 1.1 3.3.5 0 .6-.8.3-1.8-.6-1.5-.5-1.5 1-.3 2 1.6 3 1.1 2.1-1.3-.3-.9-1.1-1.3-1.8-.9-.6.3-.5 0 .2-.8 1.1-1.2 1.4-1.2 2.1 0 .6.9 1.1 1 1.5.3.4-.6-.5-1.9-1.8-2.8-2.1-1.3-2.4-2-1.6-3.4.6-1.1.6-2.1.1-2.4-1.2-.8-2.5 4.9-1.5 6.5.4.7.1 1-.7.7-.8-.3-1.4-1.1-1.4-1.9 0-.8-.4-2-.8-2.6-.5-.9-.3-1.1.6-.7 1.7.6 1.7-2 .1-5.1-1.6-3.2-1.1-5 1.6-5.3 1.9-.2 2.2-.1 1 .7-.8.5-1.8.7-2.4.4-1.2-.8.2 1.7 2.6 4.3 1.1 1.2 2 2.9 2.2 3.7.2 1.8 2.5 4.7 3.7 4.7.4 0-.4-2-1.8-4.6-1.4-2.5-2.3-4.7-2-5 .3-.3 1 .4 1.7 1.5.6 1.2 1.6 2.1 2.2 2.1.7 0 .7-.4 0-1.3-.6-.7-.8-2.4-.5-3.7.4-1.5.3-2.1-.5-1.6-.6.3-1.4.1-1.8-.5-.4-.8-.3-.9.4-.5s1.2.1 1.2-.6 1 0 2.1 1.7c1.8 2.6 2 2.7 1.6.7-.5-1.9-.3-2.1.9-1.1.8.6 1.4 1.8 1.4 2.5 0 .8.5 1.4 1 1.4.7 0 .7-.7 0-2-.9-1.6-.8-2.2.5-2.6 2.1-.8 2.7-.1 3 3.7.2 1.9 1.3 4.1 2.9 5.6 2.7 2.4 3 1.8 1.6-2.7-.6-2-.8-2.1-.9-.6-.1 1.9-.1 1.9-1.5.1-.7-1-1.2-2.6-1.1-3.4.2-.9.4-2.2.4-2.9.1-.6.8-1.2 1.7-1.2.8 0 1.3-.4.9-.9-.3-.5-.1-1.2.5-1.6.9-.6 3.5 4.1 3.2 5.7-.1.4.6.4 1.5.1 1.4-.5 1.4-.8.1-1.7-1.2-.9-2.1-5.6-1.1-5.6.2 0 .8 1 1.4 2.2.8 2.1.9 2 .5-.6l-.4-3 1.8 2.4c1 1.3 2.2 2 2.9 1.6.9-.6.9-1.1 0-2.3-.7-.8-1.3-2.3-1.4-3.4-.1-1.1-1-2.6-2.1-3.4-1.8-1.4-1.8-1.5 0-.8 1.3.4 1.7.2 1.4-.8-.3-.8-1.5-1.4-2.8-1.4-1.3 0-2.5-.6-2.8-1.3-.3-.9.3-1.1 2.1-.7 1.4.4 2.8.2 3.1-.4.9-1.4-3.2-5.4-4.6-4.5-.6.4-1.7-.1-2.5-1.1-1.2-1.7-1.3-1.8-1.3-.1 0 1-.5 1.4-1.1 1-.8-.4-.9 0-.4 1.5.5 1.7.2 2.1-1.3 2.1-1.1 0-2.3.6-2.5 1.2-.4.9-.6.8-.6-.2-.1-.8-1-2.1-2.1-2.8-1.1-.7-2-1.7-2-2.3 0-.6.8-.3 1.7.6 1.6 1.6 1.7 1.6 2.5-.5.5-1.3.6-3.2.2-4.3-.4-1.2-.2-1.7.4-1.3.6.3 1.3 0 1.6-.6.3-.7.3.1 0 1.9-.3 2.6-.1 3.1 1.1 2.6.9-.3 1.4-1.1 1.1-1.8-.3-.8.4-1.2 1.8-1.1 1.7.1 2.2.6 1.8 1.8-.5 2.1 1.6 2.4 2.4.4.3-.8 1.2-1.2 2-.9.8.3 1.4 0 1.4-.6s-.7-1.1-1.5-1.1-1.5-.7-1.5-1.6c0-1.3.3-1.4 1.4-.5.8.6 1.8 1.1 2.2 1 2.1-.4 3.4.2 3.4 1.5 0 .8.7 1.6 1.5 2 .8.3 1.5.1 1.5-.4 0-.6-.5-1-1.1-1-.8 0-.7-.5.1-1.5 1.1-1.3 1.5-1.3 2.1-.3.7 1 .9 1 .9-.2 0-1.3.2-1.3.9-.1.7 1.1 1.1.5 1.6-2.2.5-2.5 1.3-3.7 2.4-3.7 1.4 0 1.4-.2.1-1-.9-.5-1.9-.5-2.6.1-.8.7-1.4.6-1.9-.1-.3-.6-1.1-.8-1.6-.5-.5.3-.6-.2-.2-1.1.4-1.1.3-1.5-.4-1.1-.6.4-1.8 0-2.6-.8-1.9-1.8-3.4-1.9-4-.3-.3.7-.6-.3-.6-2.2 0-1.9.6-4.4 1.4-5.4 1.4-1.9 1.5-1.9 1.5.7 0 2 .4 2.5 1.6 2 1.2-.4 1.4-1.4 1-3.5-.3-1.8-.2-2.7.4-2.3.6.3 1 1.3 1 2.1s.5 1.4 1 1.4c.6 0 1-.5 1-1 0-.6.9-1 1.9-1 1.1 0 2.2-.6 2.4-1.3.4-.9.8-.8 1.7.3 1 1.3 1.1 1.2.6-.3-.3-1-.6-2.2-.6-2.7 0-.4-.9-1-2.1-1.3-3.4-.9-1.2-2.9 2.4-2.2 2.4.5 2.8.4 1.7-.4-.8-.6-1.1-1.1-.5-1.1.5 0 .4-.5-.3-1.2s-1.6-.8-2.4-.2c-.9.7-2.2.1-4.3-2-2.5-2.4-2.6-2.7-.7-1.7 1.3.7 3 1 3.8.7.8-.3 1.4-.1 1.4.4 0 1.6 4.5.4 4.8-1.2.2-.9-.5-2.4-1.5-3.3-1.3-1.3-1.4-2-.5-2.3.6-.2 1.2-.8 1.2-1.3 0-.6-.4-.8-.8-.5-.5.3-2-.6-3.5-2-3.2-3-3.3-3-4.1.1-1 3.9-2.8 1.9-2-2.2.9-4.6-.3-5.3-8.8-5.3H448v-4.4c0-4.3-.1-4.5-3.1-4.4-1.7.1-3.4-.5-3.9-1.2-.6-1-.9-.9-1.4.1-.4 1-.7 1.1-1.2.2-.3-.7-1.3-.9-2.2-.6-1.2.5-1.1-.1.7-2.6 2.6-3.6 2.3-4.6-1.1-3.7-1.4.4-6.3 6-12.8 14.7-5.8 7.7-11.2 14.9-12.1 15.9-1.4 1.7-3.5 1.9-21.1 2.2l-19.7.3-.4-2.4c-.5-2.3-.4-2.3 5.2-1.5 9.2 1.3 12.8.8 16.5-2 4.2-3.2 7.1-10.2 6.3-15.1-.3-1.9-.1-3.7.4-4 .5-.4.9.1.9.9s.4 1.8 1 2.1c.5.3.7 0 .4-.9-.4-1 .2-1.7 2-2.2 3.3-.8 3.4-2.3.1-1.6-2.1.4-33.5-10.8-35.7-12.7-.3-.3-.8-1.5-1-2.5-.3-1.8 1.4-2.2 19.9-5l20.2-3.1 8.3 2.8c7.2 2.5 9.6 2.9 18.7 2.8 10.3-.2 10.4-.1 8.7 1.8-1.2 1.3-1.5 2.7-1.1 4.1.6 1.9.8 1.8 3.5-1.5 1.6-2 3-4 3.2-4.6.2-.5 2.8-1.6 5.8-2.4 4.5-1.2 6.4-2.4 10.8-7 2.9-3.1 6.8-8.8 8.8-12.7 3-5.9 3.4-7.7 2.9-11.2-1-7.2-2.8-13-4.7-15.8-1.9-2.7-1.9-2.7.4-3.2 1.3-.2 3.2-.4 4.3-.4 1.1 0 3.4-.3 5-.6l3-.5-2.8 1.3c-1.5.7-2.4 1.5-2.1 1.9.4.4-.7 1.2-2.4 1.8-1.8.6-2.9 1.5-2.6 2 .7 1.2 49.5 1.1 51.4-.1 1.2-.8 1-1-.8-1-1.3 0-2-.4-1.7-1 .4-.6 3-.8 6.2-.6 6 .5 7.9 1.3 3.8 1.5-4.7.3-5.4.4-5 1.1.2.4 2.9.5 6 .2l5.5-.4-.6 4.5c-.5 3.8-.3 4.8 1.4 6.3 2.5 2.1 1.9 4-2 6-1.6.9-2.7 1.8-2.5 2.1.3.3 4.1.6 8.4.8 5.7.2 7.7.6 7.5 1.5-.2.9.6 1.1 3 .6 8.3-1.7 12.7-1.8 18.2-.2 4.3 1.3 8.8 1.6 17.9 1.4 12.6-.3 19.3 1.2 18.3 3.9-.3.7-.1 1.5.4 1.8 1.8 1.1 1 2.7-1 2.2-1.1-.3-2.3-.1-2.6.4-.3.5.4.9 1.5.9 3 0 11.3 3 13.4 4.8 2.4 2.1 1.3 2.8-1.5.8-1.2-.9-3-1.6-4-1.6s-1.8-.4-1.8-.9c0-.4-2.9-.8-6.4-.8-3.4 0-6.8-.3-7.4-.7-.7-.4-12.7-.6-26.8-.5-29.6.2-36 1.3-44.1 7.2-7.2 5.3-14.3 13.4-14.3 16.3 0 .9 4.5 1.2 16.8 1.1 9.2 0 21.5.1 27.4.1l10.7.2.3 9.6c.2 5.3 0 10-.3 10.5s-3 1-6.1 1.2c-3.1.1-5.4.5-5.2.9.2.3-1.5.9-3.8 1.3-2.4.3-5.6 1-7.3 1.5-1.6.5-4.3 1.1-6 1.4-9.4 1.7-24.1 4.7-27.6 5.6-3.3.9-3.9 1.4-3.3 2.8.4.9.7 3.3.6 5.3-.1 2.4.3 3.6 1.2 3.6.8 0 1.2-.5 1-1.1-.2-.6 0-2.5.5-4.1l.9-3 .2 3.2c.2 1.8.3 3.9.4 4.5.1.7-.2 1.6-.7 1.9-.5.4-.4 1 .2 1.3.6.4 1.1.2 1.1-.3 0-1.8 2.8-1.2 3.2.6.3 1.5.4 1.5 2-.1 1.1-1 2.7-1.6 4-1.3 2.2.4 2.2.4-.2.6-1.9.1-2.1.4-1.1 1 1.6 1 4.9-.1 9.6-3.3l3-2.1-1.9 3c-1 1.7-1.3 2.4-.5 1.8 1.6-1.5 3.3-1.7 2.4-.3-.7 1.1-.3 1.2 5.5 1.4 2.2 0 4-.2 4-.5s1.1-.4 2.5-.1c1.4.2 3.3-.2 4.2-.9.9-.8 1.4-.9 1.1-.4-.4.6-.3 1.7.3 2.5.7 1.3.9 1.2.9-.3 0-.9.5-1.7 1-1.7.6 0 1 .7 1 1.5s.5 1.5 1.1 1.5c.6 0 .9.6.6 1.3-.3.8.3 1.3 1.4 1.3 2.1 0 2.6-1.2.7-1.8-.6-.2-.8-.9-.4-1.6.5-.9 1-.9 2 .1.8.6 1.2 1.5 1 1.9-.2.3-.1 1.3.2 2.2.5 1.2 1 1.4 1.9.6 1.1-.9 1.2-.7.8.9-.3 1.2 0 2.7.6 3.4.6.8.8 1.7.4 2.1-.4.4.1.4 1.1 0 1.3-.5 1.7-.4 1.3.3-1.5 2.4 3.9-.2 6.6-3.1 2.5-2.8 2.7-2.8 1.6-.6-.8 1.8.2 1.2 3.8-2.3 2.7-2.6 5.3-4.4 5.8-4 .4.5.5.2.1-.4-.4-.8-.1-1.3.8-1.3s2.7-1.8 4.1-4c3.7-5.8 4-4.9.5 1.4-2.5 4.5-2.8 5.5-1.5 5.9.8.4 1.4.3 1.4-.1-.3-2 .2-3.2 1.1-2.7.6.4 1.8.1 2.7-.7 1.5-1.1 1.6-1.1 1 .4-.4 1-1 2.6-1.3 3.5-.5 1.7-.5 1.7.9 0 .8-1 2.5-2 3.8-2.2 1.3-.3 2.5-.9 2.7-1.5.2-.5.8-1 1.4-1 .6 0 .3 1.2-.7 2.6-1.6 2.5-1.6 2.6.2 2.2 1.1-.2 2.4-2 3.4-5 .8-2.6 1.9-5.1 2.3-5.5.4-.4.4 0 0 1-.3 1-.1 1.7.5 1.7s.8 1.1.5 3c-.4 1.9-.2 3 .4 3 .6 0 .9-.6.6-1.3-.7-1.9 2.2-4.2 3.2-2.6.4.7.2 1.5-.4 1.7-.7.2-1.2 1.3-1.2 2.4 0 2 .1 2 2.8.2 1.5-.9 3.2-2.5 3.9-3.3.6-.9 1.5-1.3 1.9-.9.4.4 1.4.2 2.2-.5 1.2-.9 1.6-.9 1.9 0 .3.7 1.8 1.3 3.4 1.3 1.9 0 2.8-.4 2.4-1.1-.4-.6-1.3-.8-2-.5-1.8.7-3.6-1.6-2.6-3.3.7-1 .9-1 1.4.2.4 1.2 1.4 1.3 4.1.7 1.9-.4 3.7-.6 3.9-.3.2.2.7-2 1.1-4.8.4-2.8.4-5.4.1-5.7-.6-.6-24.4-5.4-45.7-9.3l-12.8-2.2-.5-3.1c-.4-1.7-.5-6.5-.3-10.6l.3-7.5 20-.2c11-.2 23.3-.3 27.3-.3 6.5 0 7.2-.2 7.2-2 0-1.1.1-2 .3-2 .1 0 1.7-.4 3.5-.9 4.1-1.2 4.1-.5 0 1.4l-3.3 1.5 3.3-.6c4.3-.7 4.1.3-.4 2.2-2 .8-3.4 1.7-3.2 2 .3.2 2-.2 3.9-1 1.9-.7 4.5-1.7 5.9-2.1 2.4-.7 2.4-.6.5.8-2 1.4-7.3 3.4-11.1 4.1-3.3.7-9.3 3.9-8.8 4.8.3.4-.5 1.2-1.8 1.7s-3.9 1.6-5.8 2.4c-3.3 1.5-3.4 1.6-.5 1 4.8-1 16.6-5.9 15.8-6.6-.3-.4.5-.7 1.8-.8 1.3 0 5.6-.8 9.4-1.8 7.3-2 10.9-1.7 5.9.4-2.8 1.1-2.8 1.2-.7 1.9 1.2.4 3 .3 4-.2 2.9-1.5 7.5-2.4 6.9-1.4-.3.6-1.8 1.3-3.3 1.6-7.4 1.8-28.6 9.1-27.1 9.4 1 .2 5.7-1 10.5-2.7 11.3-3.9 20.6-6.1 24.6-6 2.1.1 2.5.3 1.2.6-1.1.2-3.8 1.2-6 2.2-2.2 1-5.9 1.9-8.3 1.9-4.4.2-12.5 3.1-10.6 3.9.7.2.9 1.3.7 2.4-.5 1.8-.3 1.9 1.3 1.1 1-.6 3.9-1.8 6.3-2.7 3.6-1.3 4.6-1.4 5.3-.3.6.9 1 1 1.6.2.4-.6 3.2-2 6.2-3 3-1.1 5.7-2.2 6-2.6.8-1 13.1-5.1 13.6-4.5.3.3-1.1 1-3 1.7-2 .6-3.6 1.6-3.6 2.1 0 1.2-.2 1.3 8.2-1.6 4-1.4 7.7-2.5 8.2-2.5 2.4 0-1.5 1.9-8.9 4.4-4.4 1.6-8.4 3.2-8.9 3.7-.6.5-1.7.2-2.8-.8-1-.9-1.8-1.2-1.8-.6 0 1-5.3 3.6-10 4.9-2.7.7-6 3.2-6 4.5 0 .5 1.5 0 3.3-1 1.7-1.1 4.3-2.2 5.7-2.6 2.2-.6 2.3-.6.8.6-1.7 1.3-1.6 1.5.6 2.5 2.1 1 2.8.8 4.5-.7 3.1-2.9 10-5.2 8.6-2.9-.3.6.1.7 1 .3 1.2-.4 1.3-.8.5-1.3-.7-.4.6-1.5 3.3-2.6 2.5-1 4.1-2.1 3.6-2.5-.6-.3 1-1.2 3.5-1.9s5.1-1.9 5.7-2.6c.6-.8 1.9-1.4 2.8-1.4.9-.1 3.3-.7 5.3-1.4 2.1-.8 3.5-1 3.2-.5-.3.5.6.9 2 .9s2.8-.5 3.1-1c.3-.6 1.7-1 3-1s2.7-.5 3-1c.7-1.2 2.5-.4 2.5 1.1 0 .5-.6.9-1.2.9-.7 0-2.2.8-3.3 1.7-2 1.5-2 1.5.3 1 1.2-.3 2-.1 1.6.4-.7 1.1 1.2 1.2 3.4 0 2.7-1.4 8-2.4 6.2-1.1-2.5 1.6.5 1.2 6.7-1 6.6-2.3 6.2-1.6-.9 2-3.1 1.5-5.3 3.2-5.4 4.3-.1 1 .3 1.6.9 1.4.7-.3 1.1-.9 1-1.5-.2-.6.4-.9 1.2-.6.8.3 2.9.1 4.6-.5 5.6-1.9 6.2.2.8 2.8-7.4 3.7-5.3 3.5 4.5-.5 5.1-2.1 9.8-3.4 11.2-3.1 1.3.2 2.4.1 2.4-.3s.6-.7 1.3-.8c.6 0 2.3-.3 3.7-.7 1.4-.3-1.3 1.4-5.9 3.8-7.1 3.7-8.1 4.5-6.1 5 1.3.3 4.9-.4 8.7-1.8 3.5-1.4 6.1-2 5.7-1.4-.4.8.1.9 1.7.4 2.2-.6 2.2-.5-.6 1.9-1.6 1.4-4.5 3.1-6.2 3.8-3.4 1.2-4.4 2.8-1.8 2.8 2.1 0 8.9-3.3 9.8-4.7.4-.7 1.7-1.3 2.7-1.3 1 0 2.2-.5 2.5-1 .4-.6 1.1-.8 1.6-.4.5.3 1.6.2 2.2-.3.7-.4.4 0-.6 1-1.1.9-3.1 2-4.6 2.4-1.4.3-5 2.1-8.1 3.8-3 1.8-8.9 4.7-13 6.5-4.1 1.9-7.9 3.8-8.5 4.2-1.2 1.1 2.5-.3 8.7-3.2 2.6-1.2 5.2-1.9 5.7-1.5.6.3 3 .1 5.3-.6 2.4-.6 5.4-1.3 6.8-1.4 1.4-.1 3.7-.6 5-1 5.2-1.5-.4 2.3-11.7 8-6.2 3.2-11.3 5.9-11.3 6.1 0 .6 5.8-1.5 9.5-3.5 4.8-2.6 7.4-2.9 5.5-.6-.7.8-2 1.5-2.9 1.6-1 0-1.1.3-.4.6 1.3.5 16.7-6.6 16-7.3-.2-.3-1.6 0-3.1.6-1.5.5-3.5 1-4.4 1-2.3 0 7.9-5.6 11.4-6.3 2.7-.5 2.7-.4.9.9-2.5 1.8-.1 1.8 2.8 0 1.2-.8 3.3-1.7 4.7-2 1.8-.5 1.4 0-1.5 1.8-4.5 2.9-4 3.4.8 1l3.2-1.7-2 2.4c-1.1 1.3-2.9 3.1-4 4.1-2.8 2.4-.5 2.3 5-.3 4.5-2.1 6.3-4.6 2.5-3.4-4.3 1.4-1.7-.8 4.5-3.6l6.5-3.1v-63.4c0-34.9-.2-63.4-.5-63.4-1.4 0-8.4 4.1-8.9 5.2-.3.7-.4-17.8-.1-41.1l.5-42.3-70.7.7c-39 .4-70.9.8-71.1 1-.4.4-1.2 30.7-1.4 53 0 12.1-.4 19.1-.8 16.5-.4-2.5-.8-3.5-.8-2.3-.1 1.3-.5 2.3-.9 2.3-.5 0-4.8-.5-9.8-1.1-8.6-1.1-9.1-1-13.2 1.2-2.4 1.3-4.3 2.7-4.3 3.1 0 .5-2 .8-4.5.8H609v56.1l-2.7-1.5c-4.5-2.3-10.3-3.5-20.9-4.5-5.4-.5-16.4-1.8-24.4-3-8-1.1-23-3.2-33.4-4.5-10.3-1.4-19-2.7-19.3-3-.3-.3-.9-13.9-1.3-30.3l-.7-29.8-.1 30.2c-.1 19.4-.6 30.3-1.2 30.3s-1-3.4-1-8.3c0-4.5-.3-21.3-.6-37.2-.4-16-.9-61-1.3-100l-.8-71-.3 56.5zm259 55c1.9.5 3.6 1.4 3.8 1.9.2.6 1.2 1.1 2.3 1.1 1 0 1.9.4 1.9 1 0 .5-.9 1-2 1s-2 .4-2 1c0 .5.4 1 .8 1 .5 0 .9 2.3 1.1 5.2.1 2.9.7 5.8 1.3 6.5 1.9 2.4-5.6 9.5-12.4 11.7-1 .3-1.8 1.3-1.8 2.1 0 1.2.6 1.5 2.2 1 1.7-.6 2-.4 1.5.9-.4.9-1 2.3-1.3 3.1-.4 1.1.1 1.5 1.9 1.5 1.8 0 2.6.6 2.9 2.3.4 1.9 0 2.2-2 2.2-3.5 0-3.8 1.9-.5 3.4l2.8 1.3-5 1.4c-2.7.7-5.8 1.1-6.7.8-1-.3-1.8-.1-1.8.5s.3 1.1.8 1.1c.4 0 1.5 1.1 2.4 2.4 1.6 2.3 1.6 2.3-1 2.2-1.5-.1-2.8-.7-2.8-1.4-.1-.6-.2-1.6-.3-2 0-.5-1.8-.8-3.8-.7-3.1.1-3.8.5-3.8 2 0 1.6-.8 2.1-4 2.3-2.9.2-3.6 0-2.5-.7.8-.6 1.1-1.3.8-1.7-.4-.4-1.9.1-3.3 1-1.9 1.2-3.7 1.5-7.3 1-7.4-1-8.4-1.1-13.2-1.3l-4.5-.1-.3-6.3c-.4-7.4.5-8.6 6.7-8.9 2.2-.1 4.1-.3 4.1-.5s-1.1-2.1-2.5-4.1c-2.6-3.8-3.2-5.8-1.5-4.7.5.3 1.8.1 2.8-.4 1.4-.7 2.5-.6 4 .5 1.9 1.3 2.3 1.3 4-.4 1.2-1.2 2.2-4.1 2.6-7.6.4-3.1 1.2-5.6 1.7-5.6s.9.7.9 1.5c0 2.8 1.8 1.5 3-2 1.1-3.5 3.4-4.7 4.3-2.3.2.7.7-1.4 1.1-4.7.5-3.3 1.3-6.9 1.9-8 .9-1.8 1.1-1.6 2.3 2 .8 2.9 1.2 3.3 1.3 1.7.1-1.3.5-2.1 1-1.8.5.3 1.1-.1 1.5-.9.3-.8 1.5-1.5 2.6-1.5s2-.4 2-.9 1-1.2 2.3-1.4c2.2-.5 3.1-.3 9.7 1.3zm-96 10.6c1 1.8 1.4 7.6 1.4 21.2.1 19.4-.3 21.3-4.1 21.1-1 0-1.3-.2-.8-.5 1-.4 1.1-41.4.1-44-.9-2.3 2-.4 3.4 2.2zm-8.3 71.3c3.3 3.2 5.5 5.7 4.9 5.6-.6-.2-9.4-1.1-19.6-2-19.2-1.7-22.6-2.7-19-5.2 1.1-.8 2.8-1.3 3.9-1.1 1 .2 1.9-.2 1.9-.7.2-1 7.5-2 16.9-2.3 5-.2 5.3-.1 11 5.7zM284 393.5c.6 1.9 1.6 3.5 2.2 3.5 2.4 0-6.2 4.8-9.8 5.4-4.4.9-9.4 3.2-9.4 4.5 0 1.2 9.3 2.1 10.4 1.1 1.4-1.4 3.4 0 2.9 2-.3 1 .3 3 1.4 4.4 1.4 2 2.4 2.4 5 2 3.9-.6 8.3 2 8.3 4.8 0 1.5-.5 1.8-1.6 1.4-1-.4-2.5.1-3.5 1-1.1 1-1.9 1.2-1.9.6 0-.7.5-1.2 1-1.2.6 0 1-.5 1-1 0-1.5-1.7-1.2-4 .7-1.3 1.2-1.8 2.4-1.4 4 .8 3-.4 3-1.5 0-.8-2-.9-1.9-1.6 1.3-.4 1.9-1.3 3.8-1.9 4.2-.8.6-.7 1.1.3 1.7 1.1.7.9 1.4-1.3 3.6-1.5 1.5-3 2.4-3.4 2-.4-.3.1-1.1 1.1-1.6 2-1.2 2.3-3.1.3-2.3-.8.3-1.7.1-2.1-.5-.3-.6.1-1.1.9-1.1.9 0 1.6-.7 1.6-1.6 0-.9.8-2.3 1.8-3 1.5-1.2 1.5-1.5.2-2.4-1.3-.9-1.3-1.1 0-2 1.2-.7 1.2-1.2.2-2.2-1-1-.7-1.6 1.4-3.3l2.7-2.1-4.5-3.7c-3.5-2.9-5.6-3.8-10.1-4.3-7-.8-9.4.8-7.4 5 .7 1.4 1.6 2.6 2 2.6.5 0 .6.4.2.9-.3.5.1 1.6.9 2.3 1.8 1.8 2.9 5.5 2.1 6.9-.4.6-1.8-1.3-3.1-4.1s-2.8-4.9-3.4-4.5c-.5.3-1 .4-1 .1 0-.2-.3-1.2-.7-2.2-.4-1.2-.3-1.5.5-1s1 .2.6-.8c-.3-.9-.9-1.4-1.3-1.2-.4.3-1.2-.4-1.9-1.4-1-1.7-.8-2.2 1.5-3.7 1.5-1 3.1-1.8 3.7-1.8 1.6-.2 8.6-3.4 8.6-4 0-.3-1.6.2-3.6 1s-3.7 1.5-3.9 1.5c-.7 0-2.7-8.1-2.2-9.4.4-.9-.1-1.7-1.1-1.9-.9-.3 1.7-.6 5.8-.7 4.1-.1 9.3-.7 11.5-1.5 5.9-1.9 6.2-1.8 7.5 2zm101.5 21.4c-2.2 1.1-3.5 2-2.8 2 .7.1 1 .8.7 1.6-.4 1-2 1.5-4.8 1.5-2.2.1-6.1.5-8.6 1.1-3.8.9-12.5 2.5-18 3.3-.8.1-2.6.5-4 .9-8 1.9-8 2-8-1.2 0-1.6-.5-4.2-1-5.7-.9-2.2-.8-2.5.2-1.7 1.4 1.1 12.9.3 30.3-2.1 5.5-.7 12.3-1.4 15-1.5h5l-4 1.8zm220.9 15l.1 5-8.5 1.1c-4.7.7-10.3 1.6-12.5 2.1-2.2.5-4.5.9-5.2.9-1.5 0-2.6-5-1.8-8.2.6-2.3 1.4-2.6 13.8-4.5 7.3-1 13.4-1.8 13.6-1.7.2.2.4 2.6.5 5.3zM340 437.5c0 8.5-.3 8.9-8.6 9.8-3.2.4-5.5.2-6.3-.6-.6-.6-1.1-4.2-1.1-7.9 0-7.6-.2-7.4 9-8.1 2.5-.2 5.1-.4 5.8-.5.9-.2 1.2 1.9 1.2 7.3zm334.8 7.6c-.7 2.1-1.7 2.9-3.4 2.9-1.3 0-2.4-.5-2.4-1.1 0-1.4-10.2-.3-11.1 1.2-.3.6-3.7 1.4-7.5 1.8-3.8.5-6 .9-4.9 1l2 .2-2 .9c-1.1.5-3.7.9-5.7.9-2.1.1-3.8.6-3.8 1.2 0 .5-.4.7-1 .4-.5-.3-1-.1-1 .5s-.7 1-1.6.8c-1.4-.3-6-9.5-5.2-10.3.2-.2 9-.6 19.6-1l19.2-.8.6-2.4c.4-1.4 1.6-2.8 2.8-3.3 1.6-.7 2.6-.3 4.2 1.7 1.8 2.1 2 3.1 1.2 5.4zm66.5-3c4.1 1.9 6 8.6 3.7 12.9-1.1 2.1-5.1 3.3-8.5 2.4-2.8-.7-6.5-6.7-6.5-10.5 0-5 5.7-7.4 11.3-4.8zm-436.9 31.4c0 3-.5 6-1.1 6.7-.6.7-.7 2.2-.3 3.3.4 1.1.5 2.6.3 3.2-.3.7 0 1.3.5 1.3.6 0 .9 1 .7 2.2-.3 1.2.1 2.6.8 3 .9.6.9.8-.2.8-.9 0-.6.7.9 2 2.1 1.8 2.2 2 .4 2.1-1 .1-2.2.1-2.6 0-.4 0-1 1.6-1.3 3.7-.4 2-.9 4.4-1.2 5.2-.4.8-.5 2-.4 2.7.2 1.3-4.6 3-5.6 1.9-.4-.3.3-.6 1.5-.6 1.1 0 2.4-.5 2.8-1.2.5-.8.2-.9-.9-.5-2 .8-2.2-.4-.4-2.2.6-.6 1.2-2.4 1.2-3.9 0-2.5-.3-2.7-3.4-2.3-2.3.2-3.2 0-2.7-.8.4-.6.2-1.1-.4-1.1-2.5 0 .2-1.8 3.6-2.3 2-.3 4.2-1.1 5-1.8 1.5-1.2 1.9-5.1.7-6.2-.3-.4-.8-1.7-.9-3-.5-4.3-1.1-7.4-1.7-8.4-.4-.6-.8-3-1.1-5.5l-.4-4.4 3.1.4c3.2.4 3.2.4 3.1 5.7zm51.9 46.5c3.1 0 5.7.4 5.7 1 0 .5-.6 1-1.3 1-.7 0-1.9.9-2.7 2-1.5 2.1-7 2.8-7 .9 0-.8-.5-.8-1.5.1-.8.7-2.5 1-4 .6-2.1-.6-6 .7-7.5 2.5-.3.3-1.2.9-2 1.3-3.8 1.8-5.9 3.3-5.4 3.9.3.3 2.4-.5 4.5-1.9 2.1-1.3 4.3-2.4 4.9-2.4.5 0 1-.5 1-1 0-.6.9-1 2-1s2 .4 2 1c0 .5 1 1 2.3 1 1.8 0 1.9-.2.7-1-1.1-.7.1-.9 3.9-.8 4 .2 5.6-.2 6.6-1.5.7-.9 1.7-1.7 2.4-1.7.6 0 1.1-.5 1.1-1 0-.6.7-1 1.5-1s1.5-.5 1.5-1.1c0-.7.9-.9 2.3-.6 1.2.3 7.3.7 13.5.8 6.1.1 11.2.5 11.2.8-.1.3-3.7 3.1-8.2 6.1-4.5 3-8.8 6.1-9.5 6.9-1.2 1.1-4.2 1.3-15.6.7-7.8-.3-20.9-.9-29.2-1.2-8.2-.4-15.1-.8-15.3-.9-.2-.2 5-3.5 11.5-7.4l11.8-7.1 6.5.5c3.6.2 9.1.4 12.3.5zM282 576.7c.9 1.5 1.1 1.5.7.2-.4-1.2.1-1.7 1.8-1.7 2.1 0 2.2.3 1.2 1.9-.7 1.1-1.5 1.9-1.9 1.9-.5 0-.8.7-.8 1.5 0 1.6 1.5 2.1 2.3.7.2-.4.2-.1.1.5-.2.7.1 1.3.6 1.3.6 0 1 .4 1 .8 0 .9-5.3.8-6.7-.1-.5-.3-2.2.1-3.8.9-2.1 1.1-3.1 1.2-4.2.3-1-.9-1.7-.9-2.5-.1-.9.9-.8 1.2.5 1.2.9 0 1.7.4 1.7 1 0 .5-.3.9-.7.9-.5-.1-1-.1-1.3.1-2.4.9-5 .8-5-.3-.1-.6-.2-3.8-.3-7l-.2-5.7h8.2c6.7 0 8.4.3 9.3 1.7z"/><path d="M578 205.2c-4.7.5-8.7 1.2-9 1.5-.3.2-.7 7.4-.9 15.9l-.3 15.4h3.4c1.9 0 6.9-.3 11.1-.6l7.7-.7v-16.3c0-15-.1-16.4-1.7-16.3-1 .1-5.6.6-10.3 1.1zm-34.6 1.4c.3.9.6 1.7.6 1.9 0 .2.8.1 1.9-.2 3.5-.9 3.9.7 4.4 17.4.4 10.6.2 12.3-1.2 12.6-.9.3.3.5 2.7.6l4.2.1v-27h4.8c4.5 0 8.2-1.3 7.1-2.4-.3-.3-2.8-.9-5.5-1.2-2.7-.3-5.9-1-7.1-1.6-1.2-.6-3.1-.8-4.2-.5-1.2.3-2.4.1-2.7-.4-.3-.5-1.7-.9-3.1-.9-1.9 0-2.4.4-1.9 1.6zm37.1 34.4c-4.4.5-13.6 1.1-20.5 1.5-6.9.4-14.1.9-16 1-1.9.2-10.8.7-19.7 1.1l-16.3.7V294h15.2l-.7-4.1c-.9-5.3.4-29.9 1.6-29.9.5 0 .9 7.7.9 17.1 0 15.6.1 17 1.7 16.7 1.5-.3 1.7-2 1.8-15.3v-15h7.3c6.2 0 7.2.2 7.2 1.7 0 1 .5 1.8 1 1.8.6 0 1 1.4 1 3 0 1.9-.5 2.9-1.2 2.8-.8-.2-1.4 1.1-1.6 3.6-.3 3 0 3.7 1.1 3.3 1.1-.4 1.4.8 1.5 5.9.1 3.6.3 6.8.6 7.2.4.7 2.8.8 7.4.3 1-.1 1.2-3.1.9-13.1-.3-10.2-.1-13 .9-13s1.4 3.2 1.6 13.2l.3 13.3 3.4.3 3.4.3-.7-14.4c-.6-12.5-.4-14.5.9-15.1 1.5-.5 1.7 1.6 2 25.2v3.2h24.6l-.2-16-.1-16-3.6.1c-2.1 0-9.7-.2-16.9-.7-11.7-.6-13.3-.5-13.3.9 0 1.2-.8 1.4-4.2 1-2.4-.3-4.7-.9-5.2-1.4-.6-.5-1.9-.9-2.9-.9-1.1 0-2.1-.9-2.4-2.1-.4-1.5-.8-1.7-1.4-.8-1.5 2.5-2.1.1-.9-3.6.8-2.4 1.7-3.5 2.8-3.3.9.2 2.7-.7 4.1-1.9 2-1.9 3.7-2.3 10.5-2.5 17.7-.5 20.4-.4 19.9.9-.3.7 0 1.3.6 1.3s1.1-.7 1.1-1.5c0-1.5 3.2-2.7 6.5-2.4 4.1.4 5.5-.1 5.5-2.1 0-1.1-.3-1.9-.7-1.9-.5.1-4.4.5-8.8.9zm-358.9 18.3l.3 7.2-1.5-6.4c-.8-3.6-1.6-6.7-1.9-6.9-.2-.3-.2 3.1.2 7.4.4 6.4.2 8.6-1.1 11.3-2.1 4-1.4 5.4.8 1.4 1-1.8 1.5-2.2 1.6-1.1 0 .9-1.2 3.1-2.7 4.9-2.2 2.6-2.4 3.1-.9 2.6 1.6-.6 1.7-.5.6.8-2 2.4.6 1.8 3-.8 1.5-1.6 1.9-1.7 1.5-.5-.7 1.6-.4 1.6 4.2.1 2.6-.9 6.5-3 8.7-4.6 3.9-3.1 11.2-13.4 10.2-14.4-.3-.3-2 1.8-3.7 4.6-1.8 2.8-3.6 5.1-4 5.1-.5 0-.9.6-.9 1.3 0 1.4-5.2 5.7-7 5.7-1.5 0-1.2-1.6.5-3 .8-.7 1.5-.9 1.5-.5 0 .5 1 0 2.1-1.1 2.8-2.4 8.9-11.9 8.9-13.6 0-.7-1.5 1-3.3 3.7-3.8 6-7.7 11.1-7.7 10 0-.4.8-1.9 1.9-3.3 2.1-3 5.1-9.9 5.1-11.6 0-.6-1.9 2.3-4.1 6.4-2.1 4.1-5.2 8.9-6.7 10.5-1.5 1.7-2.4 2.6-1.9 2.1 1.4-1.9.7-2.8-1-1.5-1.6 1.3-1.7 1.2-.5-.3.8-1 1.9-1.6 2.5-1.5 1.4.2 9.3-15 8.4-15.9-.3-.4-1.7 1.8-3.1 4.7l-2.5 5.4.4-5.5c.4-5.1.4-5.3-.6-2-.6 1.9-1.7 4.8-2.5 6.5-.8 1.6-1.2 2.1-.9 1.1 1.1-3.7 1.6-14.2.6-12.1-.5 1.1-1 3.3-1 5-.2 4.4-2.1 1-2.1-3.7 0-2-.4-3.9-.8-4.2-.5-.3-.7 2.7-.6 6.7z"/><path d="M214.8 257c1.2 7.3.7 12.2-1.7 17.3-1.2 2.7-2.4 4.7-2.6 4.5-.2-.2.5-3 1.6-6.2 2.2-6.5 1.9-10.1-1.3-15.4-2.7-4.5-3.3-3.5-.8 1.3 2.2 4.4 2.6 11.7.8 13.3-1 .8-1.2 0-1-3.8.3-3-.2-5.9-1.2-7.8-2.6-5-3.7-4.7-1.5.3 2.1 4.7 2 10.1-.1 13.5-.7 1.1-1 .4-1-2.3 0-3.6-3.8-14.3-4.7-13.3-.2.2.3 2.1 1.3 4.2 3 7.1 1.3 21.9-2.9 24.6-.9.6-.9.8 0 .8 2 0 4.5-3.2 7-8.9 2.6-5.9 4.3-6.5 1.9-.6-1.5 3.5-1.5 3.6 0 2.4 1.5-1.2 1.6-1.1 1 .9-.9 2.8 0 2.8 2.6-.1 1.5-1.7 1.8-1.8 1.4-.5-.3 1 0 1.8.5 1.8.6 0 .9-.9.6-2-.3-1.1-.1-2.3.4-2.6 1.5-.9 1-2.4-.5-1.8-1.1.4-1-.4.5-3.3 1.6-3 2-5.1 1.6-10.4-.2-3.6-.9-7.4-1.6-8.5-.9-1.5-.9-1-.3 2.6zm293.4 64l-.3 24 3.8.1c2.1 0 4.6.2 5.6.4 1.6.3 1.7-.9 1.7-15.1 0-14.5.1-15.4 1.9-15.4 1.1 0 2.1.3 2.4.7.2.5.2.2 0-.6-.2-1 .3-1.2 1.9-.7 1.3.3 2.6.6 3.1.6.4 0 .7 1.6.7 3.5 0 2.9-.4 3.5-1.7 3.3-1.4-.2-1.9.5-2.1 3.6-.4 4.4 1.3 7 2.9 4.6.7-1.1.8-.6.3 1.5-.8 3.8-.8 3.1.1 9.2.6 4.5 1.1 5.3 2.9 5.4 1.1 0 4.7.2 7.9.5l5.7.6v-18c0-9.9.2-18.6.3-19.4.2-.7.2-1 0-.6-.3.5-1.6.8-2.9.8-1.3 0-2.4.6-2.4 1.3 0 .9-1.1 1.2-3.5.9-2.1-.3-3.5 0-3.5.7 0 .6-.5 1.1-1.1 1.1-.8 0-.8-.5.1-1.5.7-.8 2.4-1.5 3.9-1.5s2.1-.3 1.5-.8c-.9-.5-.8-1.7.3-4.5 1.6-4 3.3-4.9 3.3-1.8 0 1.1.4 2.2.8 2.5 1 .6 3.7-1 3.8-2.4.1-.5.2-1.5.3-2 0-.6 1.7-1 3.6-1 2.6 0 3.3.3 2.9 1.5-.4.9 0 1.5.7 1.5 1.1 0 1.1.3-.1 1-1 .7-1.1 1-.2 1 1.4 0 2.1-1.3 2.4-5l.3-2.5 17.5-.5c12.3-.4 5.4-.6-23.5-.8l-41-.2-.3 24z"/><path d="M566 308c-1.2 1.4-3.3 1.9-10.3 2.2l-8.7.3-.5 3c-.3 1.6-.4 5.2-.1 8 .2 2.7.4 9.6.5 15.2l.1 10.1 6.3.4c3.4.2 6.3.3 6.4.3.2-.1.5-2.4.8-5.1.4-4.1.3-4.4-.5-1.9-.7 2.3-.8 1.6-.5-3.5.2-4.9.1-5.8-.5-3.5-.7 2.3-.9 1.5-.6-3.5.1-3.6.1-5.5-.1-4.2-.3 1.2-.8 2-1.3 1.7-.5-.3-.6 3.1-.3 8 .6 8.2.5 8.5-1.6 8.5s-2.2-.3-2-14.2c0-7.8.4-13.6.9-12.8.4.7 1.2 1 1.8.6.6-.4 1.2.5 1.5 2.1.3 2 .4 1.6.6-1.5l.1-4.2 7.8.1 7.7.2-6.3.7c-3.4.4-6.5 1-6.9 1.3-.3.4.2 6.2 1.1 12.9.9 6.8 1.6 13.8 1.6 15.5v3.3l7.8.1c4.2.1 10.3.3 13.5.5l5.8.4-.2-5.1c-.2-2.7-.8-5.3-1.4-5.7-3.7-2.4-6.8-13.5-4-14.6.8-.3 1.5-1.3 1.5-2.2 0-.9-.6-1.4-1.3-1.1-1 .4-1.3-.2-1-1.8.5-2.4-1.6-3.4-7.2-3.5-2.2 0-2.6-.3-1.5-.9.8-.6 1.8-.7 2.2-.5.4.3.8 0 .8-.6s.6-.8 1.3-.5c.6.4.3-.1-.7-.9-1.1-.9-3.4-1.6-5.2-1.6-2.1 0-3.8-.7-4.6-1.9-1.3-1.9-1.4-1.9-2.8-.1zm-57.5 62c0 12 .3 22.1.5 22.4.3.2 3.9.7 8 1.1l7.5.7-.5-5.9-.5-5.8-.3 5.2c-.2 3.8-.7 5.3-1.8 5.3-1.2 0-1.4-2.7-1.5-15.8 0-8.6-.2-16.5-.4-17.5-.3-1.5.2-1.7 3.8-1.3 2.3.3 4.5.5 5 .5.4.1.7 3.2.7 6.9v6.9l3-.5c3.1-.4 3.8.6 1.9 2.5-.8.8-.8 1.3 0 1.7.6.4 1.1 3.7 1.1 7.7v6.9h-3c-1.9 0-3 .5-3 1.4 0 .8-.8 1.6-1.7 1.8-1 .3 2.9.8 8.7 1.2 5.8.4 13.6 1.2 17.5 1.7 3.8.5 10.8 1.2 15.5 1.5 4.7.3 11.1.9 14.3 1.3 4.7.6 6 .5 6.4-.7.3-.8.3-6.4 0-12.5-.6-10.4-1.6-13.5-3.9-12.1-.4.3-.8-.2-.8-1.1 0-1 .5-1.3 1.3-.9.7.5.6.1-.3-1-1.3-1.7-1.4-1.7-2.1.1-.7 1.6-.8 1.6-.8.1-.1-.9.4-2 .9-2.3.6-.4.8-1.1.5-1.6-.4-.5-.1-.9.5-.9.7 0 1-.6.8-1.2-.3-.8-2.1-1.2-4.9-1.1-2.4.1-3.6-.1-2.7-.3 2.4-.7 2-5.4-.5-5.4-2.6 0-1.9-5.3.8-6.2 1.1-.3-.9-.7-4.5-.7-3.6-.1-8.1-.4-10-.6-3.6-.5-50.3-3.5-53.7-3.5-1.8 0-1.9 1.2-1.8 22zm46.5-4.8c0 .4 1.1 1 2.3 1.4 1.9.4 2.6 1.6 3.4 5.7.6 2.9 1.4 6.1 1.7 7.2.3 1.1 1.2 4.5 1.9 7.5.8 3 1.7 6.5 2.1 7.6.6 2 .4 2.2-4.4 1.9-2.8-.1-5.2-.4-5.5-.6-.2-.3-2.2-7.2-4.5-15.4-2.2-8.3-4.3-15.8-4.6-16.7-.4-1.2.2-1.7 2.3-2 2.6-.3 5.3 1.4 5.3 3.4zm-438.2 60.4c-4.9.8-12.7 2-17.4 2.7-4.7.6-8.2 1.6-7.7 2 .4.5-1.2.7-3.7.5-2.5-.3-5.9.1-7.5.8-1.7.7-2.3 1.3-1.5 1.3.8.1 2.2-.3 3-.9.9-.5 1.9-.5 2.7.1.6.6 2.2.8 3.4.4 1.3-.4 1.9-.3 1.6.2-.4.6 1.4.8 4.5.5 7.2-.7 5.4 1.3-1.9 2.2-21.3 2.6-41.2 4.7-49.3 5.1-5.2.4-12.2.8-15.5 1-3.3.2-10.8.4-16.7.5H0v60.7l5 2.3c2.8 1.3 4.6 2.6 4.1 2.9-.5.3-1.1 1.5-1.3 2.6-.2 1.6.4 2.1 3.2 2.5 3.4.5 3.4.6 1 1.4-2 .7-2.2.9-.7 1.3.9.2 1.4.9 1.1 1.5-.7 1.1 4.7.7 13-.9 5.8-1.1 1.7 1-5.6 2.8l-7.3 1.9 6.5-.6c3.6-.3 7.9-.7 9.5-1 2.4-.3 2.3-.2-1 1l-4 1.4 4.5-.6c2.5-.4 7.2-.7 10.4-.6 3.6 0 5.2-.3 4-.7-1.4-.6-.9-.8 2.1-1 2.2-.1 4.9-.2 6-.2 2.2.1 22.9-3.2 26-4.2 1.3-.4 1.2-.1-.5.8-1.4.8-6.8 2.4-12 3.5-14.1 3.2-32.7 8-31 8.1.8 0 7.8-1.2 15.5-2.8 7.7-1.6 17.4-3.4 21.5-4.1 13.6-2.1 37.4-7.2 40.5-8.6 3.8-1.7 3.7-1.7-6.5.1-4.7.8-8.9 1.5-9.5 1.4-2-.1 6.1-2.7 8.7-2.8 1.9-.1 2.6-.5 2.2-1.5-.3-.9.5-1.5 2.6-2 1.7-.3 2.9-1 2.6-1.5-.3-.5 1.8-1.5 4.7-2.2l5.2-1.3-3.5-.7-3.5-.6 3.3-.8c3-.7 4.5-2.5 2.1-2.5-.6 0-.8-.9-.4-2 .6-1.8-.3-2.5-2.7-2.1-1.7.2-.5-1.4 6.7-8.6 4.1-4.2 7.5-8.1 7.4-8.7 0-.6-.3-.6-.6.1-.7 1.9-2.3 1.5-2.3-.5 0-2.3-3-5.2-5.3-5.2-.9 0-1.7-.4-1.7-.9 0-.8-4.2-2-8.7-2.4-2-.2-2.2-.7-1.9-4.5.2-2.3 0-4.2-.4-4.2s-1-1-1.3-2.1c-.4-1.5-1.1-2-2.1-1.6-.9.4-1.6.2-1.6-.3 0-.6 1.4-1 3-1 1.9 0 3-.5 3-1.4 0-.8.6-1.7 1.3-1.9.9-.4.9-.8-.2-1.5-1-.7-.6-1 1.3-1 1.5 0 2.3.5 1.9 1.1-.3.5 0 .7.8.5.8-.3 1.3-1.2 1.1-2-.1-1.1.5-1.4 2.3-1.3 1.4.2 2.3-.1 1.9-.6-.3-.5-1.2-.9-2-.9s-1.4-.5-1.4-1c0-.6.4-1 .9-1 .6 0 1.3.4 1.6 1 .9 1.5 2.5 1.2 2.5-.5 0-.7.6-1.8 1.4-2.2 1.5-.8 1.6-1.1 1.6-3.8 0-.8.6-1.5 1.4-1.5.8 0 1.7-.7 2-1.6.6-1.5-.1-1.6-5.6-1.1l-6.3.6 4-1.4c2.4-.8 3.2-1.4 2-1.5-1.1 0 .2-.9 2.9-1.8 10-3.6 5.8-4.8-8.6-2.6zm679.7 78.8c-1.6.7-5.2 2.7-7.9 4.5-5.3 3.3-8.1 3.9-8.9 1.8-.3-.8-3.4.3-10.1 3.7-5.3 2.7-9.6 5.2-9.6 5.6 0 .3 3.9-1.4 8.8-3.7 9.1-4.5 10.2-4.9 10.2-3.4 0 .5-1.5 1.4-3.2 2.2-1.8.7-3.5 1.6-3.8 2-.3.3-2 1.5-3.8 2.6-3 1.8-3.1 2.1-1.2 2.6 1.1.3 1.8.1 1.4-.4-.5-.8 1-1.3 2.9-1 .5.1.5-.4.1-1-.5-.9-.2-1 1.1-.6.9.4 2.4.2 3.1-.4.7-.6 1.9-.9 2.6-.7.7.3-.1 1.2-2 2.2-5.6 2.9-2.8 2.9 3.1 0 3-1.5 5.3-3.2 5.1-3.9-.6-1.5 4.1-3.6 6.3-2.9 1.5.5 1.6.4.3-.5-.8-.6-1-1.1-.4-1.1.7 0 2.2-1.1 3.5-2.5 1.3-1.3 3.2-2.5 4.2-2.5s1.7-.8 1.7-2c0-1.1-.1-2-.2-2-.2.1-1.6.7-3.3 1.4zm-6.5 87.9c-1.6 2.4-8 8.8-12.6 12.6-1.6 1.3-3.7 3-4.6 3.8-1.5 1.3-1.6 1.3-1.2-.4.3-1 3.6-4.1 7.4-6.8 5.6-4 6.9-5.5 6.9-7.8.1-3.4-1.6-3.5-2.9-.1-.8 2-1.3 2.4-2.4 1.5-1.5-1.2-2.7-.2-4.1 3.4-.5 1.3-.9 1.5-1.2.8-.4-1-1-.9-2.6.2s-2.2 2.6-2.2 5.3c0 2.5-.4 3.6-1.3 3.4-.8-.1-1.1.2-.8.7.4.5.2 1.2-.4 1.6-.6.4-.8 1.1-.5 1.6.4.5.1.9-.4.9-.6 0-2.8 1.5-4.8 3.3-2.1 1.8-4.9 4.1-6.3 5-5.7 4-22.4 15.3-24.6 16.7-1.3.8-2.2 2-2 2.6.5 1.2-1.2 3.4-2.5 3.4-.4 0-.5-.8-.2-1.8.2-1-.3-2.4-1.2-3.2-1.3-1.1-1.5-1-.9.5.5 1.2 0 2.3-1.7 3.6-2.7 2.1-4.4 2.5-3.4.8.4-.6-.2-1.9-1.4-3s-2.1-2.4-2.1-2.9c0-.6-.4-1-1-1-.5 0 0 1.6 1.1 3.5 1.4 2.2 1.8 4.2 1.3 5.3-.6 1.4-.8 1.2-1.3-1.2-.3-1.6-1.2-3.1-1.9-3.4-.9-.3-1 .3-.2 2.3 1.5 4.1 1.4 4.2-5 4.9-4.2.5-6.8 1.4-8.9 3.1-1.6 1.4-3.3 2.5-3.7 2.5-1.4.1-9.4 7.5-9.4 8.7 0 .6-1.1 1-2.5.9-1.3-.2-2.2.1-1.9.5.3.5 0 .9-.6.9-.7 0-.9.8-.5 2s.2 2-.5 2-.8.6-.1 1.8c.8 1.4.2 2.2-3 4-3 1.7-3.7 1.9-3.3.7.7-1.7-2.2-5.5-4-5.5-.6 0 0 .8 1.3 1.7 2.3 1.6 2.3 1.7.5 2.3-1.4.5-2.4 0-3.6-1.9-1-1.4-1.8-2.2-1.8-1.6.1.5.7 1.9 1.5 2.9 2 2.6 1.9 3.8-.2 3.5-2.7-.5-6.3 2.3-6.3 4.8 0 1.3-.4 2.3-1 2.3-.5 0-1 .6-1 1.4 0 1.6-1.9 2.5-3.8 1.9-1-.4-1-.8-.1-1.9 1.8-2.2-1.1-1.7-3.9.6-2 1.6-2.1 2.2-1 3.9.7 1.2 1.9 2.1 2.6 2.1 1.4 0 12.7-7.4 13.7-8.9.3-.6 2-2 3.8-3.1l3.2-2.2-3.5 3.1c-7.2 6.4-.1 2.7 11-5.8 8.7-6.6 11.5-9.3 11.4-10.9-.1-1.2.2-1.9.7-1.7.4.3 2.4-.4 4.4-1.6 5.2-3.1 5.3-1.8.1 2.5-2.5 2-4.3 4.2-4.1 4.9.3.7-.8 2.1-2.3 3.2-2.1 1.5-2.4 1.5-1.3.2 1.9-2.3.1-2.1-2.9.4-1.7 1.5-1.9 1.9-.7 1.5 1.1-.3 1.6-.2 1.2.4-.3.6-1.4 1-2.3 1-.9 0-3 1.2-4.7 2.6l-3 2.6 3.2-2.1c1.7-1.2 3.8-1.9 4.6-1.5.9.3 5.3-2.4 11.2-6.8 5.3-4 10-7.3 10.3-7.3 1.4-.1 3.7-2 3.7-3.2 0-.6 3.8-4.1 8.5-7.7 15.1-11.5 16.9-13.1 16.5-14.4-.3-.6.1-1.2.8-1.2 1.2-.1 2.4-.9 16.2-11.5 4.4-3.3 9.1-6.7 10.6-7.5 5.1-2.9 26.7-20.5 27.7-22.6 1.5-3.1-.1-4.9-1.8-2.1zm-613.4 3.1c.3.9 1.4 1.6 2.4 1.6s2.3.7 3 1.5c.7.8 1.7 1.5 2.2 1.5 1.4 0 3.8 2.7 3.1 3.4-.4.3.6.6 2.1.6 2.9 0 8.6 2.8 8.6 4.2 0 .4.7.8 1.5.8 1.4 0 9.5 3.9 9.5 4.5 0 .2-2.3 1.1-5.1 2-6.7 2.2-5.9 2.7 1.6.9 7.2-1.6 8.8-1.7 8-.4-.3.5.3 1 1.5 1s1.8.4 1.5 1c-.3.5.2 1 1.1 1 2.6 0 10.5 4 11.1 5.6.3.8 1.3 1.4 2.2 1.4 1.9.1 7.1 2.9 5.4 3-2 0-1.5 2 .5 2 .9 0 3.5.5 5.7 1.1l3.9 1.1-2.4 1.4c-2.4 1.4-2.3 1.4 1.5.9 4-.6 4-.6 1.5 1l-2.5 1.6 3.8-.5c4.8-.6 9.9 1 7.7 2.5-1.2.8-1 .9.7.4 1.8-.5 2.2-.2 2 1.4-.1 1.1-.7 2.3-1.5 2.6-.8.3-1.1 0-.7-.8.4-.6 0-.4-.8.5-.8 1-2 1.8-2.6 1.8-.7 0-.9.4-.6 1 .3.5.1 1-.6 1s-1 .2-.7.5c.3.3 3.5-.4 7.2-1.6 7.2-2.2 8.7-2 6.5.7-1.3 1.6-1.2 1.7.9 1.2 1.2-.4 2.2-.2 2.2.4 0 .6 1.4.8 3.5.4 2.2-.4 3.5-.3 3.5.4 0 .5-.6 1-1.2 1.1-.7 0-4 1.3-7.3 2.9-5.7 2.7-5.1 3.6.8 1.2 1.6-.7 3.4-1.2 4.1-1.2.7 0 1.6-.3 2-.7.9-1 4.8-1.5 6.5-.8 1.1.5 1.1.8-.5 2.1-1.8 1.4-1.8 1.5.3.5 2.9-1.5 3.6-1.4 3 .3-.4 1 .1 1.2 1.6.9 2-.4 2-.3-.3 1.2l-2.5 1.6 2.5-.7c1.4-.4 3.1-.9 3.8-1.1.6-.3 1.2 0 1.2.6s1 1.1 2.2 1.1c2.1 0 2.1 0 .2 1.6-1.9 1.5-1.9 1.5.1.6 1.1-.5 2.6-1.1 3.3-1.3.8-.3-3.1-2.9-8.5-5.9-5.4-2.9-11.4-6.3-13.3-7.3-1.9-1.1-6.2-3.3-9.5-5-3.3-1.6-7.1-3.7-8.5-4.7-1.4-.9-7.4-4.3-13.5-7.5-6-3.2-12.3-6.6-14-7.5-1.6-1-5-2.9-7.5-4.2-2.5-1.4-6.3-3.5-8.5-4.8-3.8-2.1-11.2-6.1-28.2-15.2-4.9-2.6-7.1-3.4-6.7-2.4z"/><path d="M763 605.8c0 .5-1.8 2.1-4 3.6-2.4 1.6-3.8 3.1-3.4 3.8.4.7.3.8-.4.4-1.3-.8-5.6 1.7-4.6 2.6.3.4-.3.9-1.4 1.2-1.3.4-1.8 1.3-1.6 2.4.4 1.2-.5 2.1-2.6 3-1.6.8-3 2-3 2.8 0 .9-1.1 1.4-3.4 1.4-3.8 0-12.5 4.7-12.6 6.7 0 .7.5 1.3 1 1.3.6 0 1 .7 1 1.6 0 2 .1 2 9.8-4.6 4.5-3 8.1-6.1 8.2-6.8 0-.6.7-1.2 1.5-1.2s1.5-.4 1.5-.9 1-1.3 2.1-1.6c1.5-.5 1.8-.9.9-1.5-.8-.5-.3-1 1.4-1.4 1.5-.4 2.4-1.1 2.1-1.5-.5-.9 8.7-7.1 10.6-7.1.5 0 .8-.4.4-.9-.3-.5-.1-1.2.5-1.6.5-.3 1-1.1 1-1.7 0-.6-1-.3-2.2.8-1.2 1-1.8 1.4-1.5.7.4-.6.3-1.4-.3-1.8-.5-.3-1-.2-1 .3zm-636 19.9c-8.3 1.4-103.2 19.6-121.7 23.4l-5.3 1v12.6l10.7-2.8c5.8-1.6 11-2.6 11.4-2.3.4.2 1 0 1.4-.6.3-.5 1.4-1 2.3-1 1.5 0 1.5.2.2 1-2.1 1.4 0 1.2 5.6-.4 9.5-2.7 16-4.4 21.4-5.6 3-.6 9.2-2.1 13.8-3.1 11.2-2.8 13.2-2 3.6 1.4-9.5 3.3-5.2 3 6.6-.6 4.7-1.4 9.4-2.8 10.5-3.2l2-.6-2 1.1c-1.1.5-3.3 1.4-4.9 2-1.6.6-2.7 1.2-2.5 1.5.3.2 6.3-1.4 13.4-3.6 7.1-2.2 13.5-3.7 14.2-3.4 1.9.7 20.5-5.4 19.8-6.5-.3-.5.3-1.3 1.2-1.9 1.7-1 1.7-1-.1-1.1-1.5 0-1.6-.3-.6-1.5.6-.8 1-2 .8-2.7-.3-.7.2-1.8 1.1-2.5 1.6-1.3 1.4-1.3-2.9-.6zm605.9 23c-1.9 2.1-9.7 9.1-13 11.6-1.3.9-3.1 1.5-4 1.2-1.2-.4-5.4 2.3-12.9 8.2-6.1 4.8-11.6 8.8-12.3 8.9-2.2.3-18 12.8-16.7 13.2.6.2 1.9-.3 2.9-1.2 1-.9 2.4-1.6 3.2-1.4.7.2 1.3-.4 1.4-1.2 0-.8.8-1.4 1.8-1.4.9.1 1.5-.2 1.2-.6-.6-1 5.2-6 6.9-6 .7 0 5.7-3.4 11.2-7.6 11.9-9.1 13.6-10.2 12.7-7.7-.6 1.7-.5 1.7 1.4 0 2.5-2.2 4-2.2 2.2 0-.9 1.1-.3 1 1.9-.6 1.7-1.2 3.2-2.5 3.2-2.8 0-.3-.7 0-1.5.7-.9.7-1.8 1-2.2.6-.3-.3-.4-.7-.2-.9 1.6-1.1 10.9-8.6 12.9-10.4 1.4-1.3 2.8-2.3 3.3-2.3.4 0 .5-.5.2-1-.9-1.4-1.8-1.2-3.6.7z"/></svg>